<svg width="512" height="512" viewBox="0 0 512 512" fill="none" xmlns="http://www.w3.org/2000/svg">
<rect x="512" y="0.000183105" width="512" height="512" rx="110.9" transform="rotate(90 512 0.000183105)" fill="#2548FF"/>
<path d="M169.141 180.913C211.349 180.913 239.115 205.942 252.439 256C265.656 306.111 293.421 331.167 335.734 331.167C378.049 331.167 405.815 306.111 419.032 256C406.171 322.667 378.405 356 335.734 356C293.065 356 265.3 322.667 252.439 256C231.663 189.333 203.897 156 169.141 156C134.384 156 106.618 189.333 85.8421 256C99.1658 205.942 126.932 180.913 169.141 180.913Z" fill="white" stroke="white" stroke-width="4.6209" stroke-miterlimit="3" stroke-linecap="square"/>
<path d="M85.8421 257.565L85.8421 254.123L419.032 249.887L419.032 261.677L85.8421 257.565Z" fill="white" stroke="white" stroke-width="2.20043"/>
<path d="M419.032 242.026C426.743 242.026 433 248.286 433 256C433 263.713 426.743 269.973 419.032 269.973C411.322 269.973 405.065 263.713 405.065 255.999C405.065 248.286 411.322 242.026 419.032 242.026Z" fill="white" stroke="white" stroke-width="2.20043"/>
<path d="M85.8422 249.013C89.6972 249.013 92.8259 252.143 92.8259 256C92.8259 259.857 89.6972 262.987 85.8422 262.987C81.9871 262.987 78.8584 259.857 78.8584 256C78.8584 252.143 81.9871 249.013 85.8422 249.013Z" fill="white" stroke="white" stroke-width="2.20043"/>
</svg>
