<svg width="120" height="130" viewBox="0 0 120 130" fill="none" xmlns="http://www.w3.org/2000/svg">
<path fill-rule="evenodd" clip-rule="evenodd" d="M64.6665 0.0320605L62.3379 0.0879558C59.0773 0.207981 55.7084 0.624818 52.3299 1.3493C44.9278 2.87757 37.6591 5.78938 31.3086 9.76105C24.1114 14.2284 17.7167 20.2201 12.8307 27.082C7.52664 34.465 3.78159 43.0687 1.99768 51.9588C1.07734 56.5579 0.650967 61.2675 0.720729 65.9498C0.716829 66.738 0.759727 67.4919 0.803924 68.222C0.827323 68.6233 0.858522 69.0241 0.868054 69.4366C0.904885 70.2659 0.995879 71.0584 1.09077 71.8254C1.12977 72.2089 1.1666 72.5945 1.20906 72.988C1.29832 73.7761 1.42008 74.563 1.54617 75.3434C1.60597 75.729 1.6701 76.1108 1.73033 76.5077C1.88112 77.3119 2.04187 78.104 2.21433 78.9004L2.43922 79.9932C4.60314 89.0748 8.82049 97.8024 14.6519 105.222C20.115 112.247 27.3196 118.244 35.5047 122.574C42.9107 126.523 51.3129 128.995 59.7923 129.738C61.5476 129.919 63.4441 130 65.7628 130H65.7667L66.7472 129.984C67.4076 129.977 68.0662 129.969 68.7075 129.93L71.53 129.744C75.4358 129.337 78.9673 128.723 82.3423 127.832C88.6499 126.139 94.704 123.5 99.8474 120.205C103.974 117.59 107.819 114.502 111.279 111.019C113.918 108.413 115.712 106.053 117.02 104.327L119.282 101.113L118.503 100.547L116.514 103.155L116.227 103.498C115.594 104.261 114.84 105.15 113.957 106.146L113.401 106.725C112.48 107.698 111.436 108.798 110.218 109.918C106.762 113.167 102.912 116.042 98.7801 118.458C97.972 118.944 97.1353 119.384 96.2423 119.851C95.8432 120.06 95.4342 120.273 95.0528 120.478C94.3747 120.782 93.6944 121.1 93.0146 121.422L90.9148 122.315C88.3865 123.386 85.4651 124.337 81.7066 125.312C78.547 126.069 75.0676 126.606 71.3541 126.908L68.5545 127.034C68.2447 127.05 67.9406 127.054 67.6325 127.054L65.7823 127.034C63.5079 126.982 61.7547 126.862 60.1021 126.666C52.2311 125.806 44.3094 123.315 37.1686 119.459C29.6403 115.389 22.8873 109.659 17.6408 102.884C12.1855 95.898 8.24723 87.6761 6.23453 79.1058C6.14137 78.6525 6.04821 78.2028 5.94941 77.7478C5.81206 77.1143 5.67037 76.4635 5.55251 75.8356C5.50008 75.427 5.43032 75.0102 5.36272 74.5977C5.24443 73.9079 5.1283 73.2163 5.05247 72.5325C5.01391 72.1296 4.96755 71.7188 4.91685 71.3119C4.84145 70.6069 4.75826 69.9015 4.72706 69.2351C4.71146 68.836 4.6768 68.4274 4.65167 68.0266C4.60877 67.3 4.56241 66.5482 4.57021 65.8393C4.48485 61.3971 4.87222 56.9743 5.72106 52.695C7.42568 44.1398 10.8817 35.9937 15.7252 29.128C20.3863 22.4868 26.349 16.6965 32.9746 12.3799C39.011 8.4048 45.7042 5.55106 52.888 3.8967C55.9003 3.18392 59.1124 2.69168 62.4463 2.45943L64.777 2.31384C65.521 2.25578 66.2316 2.21721 66.9678 2.25014C67.5046 2.26358 68.0276 2.26748 68.5507 2.27138C69.4788 2.27918 70.3545 2.28308 71.2263 2.34287C76.8714 2.62192 81.7066 3.81134 85.2693 4.81097L86.0462 5.05536C87.6659 5.56666 89.0724 6.00819 90.2965 6.52946L91.0036 6.80851C92.1428 7.25005 93.1385 7.63178 93.9176 8.03866L96.8948 9.4664L97.3307 8.61019C97.3307 8.61019 96.312 8.06769 94.4328 7.06026C93.6268 6.58362 92.6289 6.13819 91.4824 5.62472L90.8177 5.33051C89.52 4.69485 88.032 4.17185 86.3001 3.56349L85.7325 3.362C82.1408 2.20161 77.2683 0.802909 71.3927 0.297243C70.4724 0.198449 69.5563 0.159884 68.5779 0.119153C68.0528 0.0957546 67.5181 0.0723558 66.9873 0.0415912C66.6194 0.0164596 66.2455 0.00476074 65.8754 0.00476074C65.4686 0.00476074 65.0673 0.0164615 64.6665 0.0320605Z" fill="white"/>
<path fill-rule="evenodd" clip-rule="evenodd" d="M57.1153 16.3902L56.6772 16.5046C56.104 16.6575 55.519 16.7992 54.9263 16.9444C54.7014 17.0081 54.4652 17.0683 54.223 17.1225C53.7368 17.2425 53.229 17.3608 52.7775 17.5467L51.9971 17.8257C50.9316 18.2209 49.8835 18.6065 48.8197 18.9961C46.1791 20.1369 43.7964 21.3905 41.5376 22.8161C37.4675 25.4549 33.7732 28.696 30.8731 32.1984C28.5289 34.9997 26.5062 38.0589 24.8614 41.2922C23.5827 43.7425 22.8487 45.8193 22.3236 47.3381L21.4634 50.1047L22.3665 50.4089L23.2188 48.1462L23.3041 47.9313C23.6022 47.2453 23.9489 46.4182 24.377 45.4939L24.7241 44.8063C25.1444 43.9635 25.6227 43.0124 26.2021 42.0223C27.9323 38.9905 30.0225 36.1389 32.4092 33.543C32.8858 33.0239 33.4032 32.516 33.924 32.0008L34.5904 31.3366C34.879 31.0883 35.158 30.8326 35.4371 30.577C35.9601 30.0986 36.5047 29.6025 37.1166 29.1471C38.6336 27.8628 40.4816 26.5668 42.9384 25.0636C44.9377 23.8738 47.3222 22.7194 49.8076 21.7332L53.8066 20.4121C54.2152 20.2453 54.6277 20.166 55.0636 20.0672C55.298 20.0247 55.5346 19.9762 55.7669 19.9181L57.8012 19.4571C63.4792 18.3604 69.5914 18.3777 75.3895 19.5169C81.6026 20.7319 87.5614 23.2619 92.6354 26.8263C97.949 30.515 102.484 35.4083 105.76 40.9741C109.083 46.5499 111.218 52.8709 111.919 59.2526C112.609 65.6824 111.991 72.1317 110.137 77.9047C108.341 83.5536 105.45 88.9141 101.773 93.4105C98.4374 97.5039 94.2837 101.073 89.7353 103.729C89.5434 103.845 89.3475 103.967 89.1538 104.089C88.8362 104.294 88.5108 104.501 88.1698 104.672L84.2081 106.599L83.3809 106.921C81.0831 107.88 78.904 108.518 77.2687 108.973C73.2429 110.036 69.5914 110.288 66.8811 110.381L65.3256 110.391C64.595 110.391 63.7444 110.381 62.958 110.315L62.4003 110.279C61.4973 110.228 60.7265 110.182 60.0752 110.075L57.6595 109.746L57.5009 110.691L59.8815 111.172C60.5189 111.321 61.2417 111.414 62.0784 111.518L62.8245 111.615C63.8957 111.792 65.1297 111.836 66.4413 111.898L66.8733 111.916C67.226 111.917 67.5805 111.921 67.9505 111.921C70.2423 111.921 73.7429 111.822 77.7241 110.964C78.4196 110.833 79.1228 110.646 79.853 110.455C80.2 110.366 80.5562 110.275 80.9107 110.185C81.6451 110.019 82.36 109.769 83.0516 109.529C83.4273 109.397 83.8069 109.269 84.1964 109.147L84.3823 109.087C84.5976 109.012 84.8182 108.938 85.0643 108.859C85.2931 108.765 85.4868 108.674 85.6744 108.591L89.3246 106.973C89.7254 106.787 90.1166 106.563 90.504 106.336C90.6864 106.233 90.8628 106.127 91.0565 106.02L92.9899 104.918C93.5012 104.631 94.0281 104.327 94.5086 103.953L95.578 103.19C96.3354 102.659 97.0967 102.115 97.8932 101.524L101.13 98.6703C101.834 97.9788 102.507 97.2404 103.192 96.4986C103.519 96.1481 103.836 95.7915 104.181 95.4331C108.312 90.6481 111.547 84.9623 113.509 79.0014C115.669 72.575 116.421 65.6105 115.685 58.8514C114.933 51.7942 112.715 45.1104 109.096 38.9866C105.518 32.9658 100.574 27.6825 94.7877 23.7074C89.4233 19.9528 82.9333 17.2988 76.0386 16.0379C73.2451 15.5262 70.3835 15.2705 67.5051 15.2705C64.0295 15.2705 60.5345 15.6444 57.1153 16.3902Z" fill="white"/>
</svg>
