<svg width="52" height="30" viewBox="0 0 52 30" fill="none" xmlns="http://www.w3.org/2000/svg">
<path d="M13.837 4.51739C19.7963 4.51739 23.7165 8.05114 25.5976 15.1186C27.4637 22.1936 31.3837 25.7312 37.3577 25.7312C43.332 25.7312 47.2522 22.1937 49.1183 15.1186C47.3025 24.5311 43.3823 29.2373 37.3577 29.2373C31.3334 29.2373 27.4134 24.5311 25.5976 15.1186C22.6644 5.70621 18.7442 0.99999 13.837 0.999989C8.92984 0.999987 5.00964 5.7062 2.07639 15.1186C3.95751 8.05113 7.87772 4.51739 13.837 4.51739Z" fill="white" stroke="white" stroke-width="1.01652" stroke-miterlimit="3" stroke-linecap="square"/>
<path d="M2.07639 15.3396L2.07639 14.8537L49.1183 14.2556L49.1183 15.9202L2.07639 15.3396Z" fill="white" stroke="white" stroke-width="1.21739"/>
<path d="M49.1182 13.1458C50.2068 13.1458 51.0902 14.0296 51.0902 15.1187C51.0902 16.2077 50.2068 17.0916 49.1182 17.0916C48.0296 17.0916 47.1462 16.2077 47.1462 15.1187C47.1462 14.0296 48.0296 13.1458 49.1182 13.1458Z" fill="white" stroke="white" stroke-width="1.21739"/>
<path d="M2.07623 14.1323C2.62051 14.1323 3.06225 14.5743 3.06225 15.1188C3.06225 15.6633 2.62051 16.1052 2.07623 16.1052C1.53195 16.1052 1.09022 15.6633 1.09022 15.1188C1.09022 14.5743 1.53195 14.1323 2.07623 14.1323Z" fill="white" stroke="white" stroke-width="1.21739"/>
</svg>
