<svg width="60" height="35" viewBox="0 0 60 35" fill="none" xmlns="http://www.w3.org/2000/svg">
<path d="M15.9225 5.09289C22.8567 5.0929 27.4183 9.20479 29.6072 17.4286C31.7786 25.6611 36.34 29.7774 43.2913 29.7774C50.2431 29.7774 54.8047 25.6611 56.9761 17.4286C54.8632 28.381 50.3016 33.8572 43.2913 33.8572C36.2814 33.8572 31.7201 28.381 29.6072 17.4286C26.1941 6.47621 21.6325 1.00002 15.9225 1.00002C10.2125 1.00002 5.65088 6.4762 2.23772 17.4286C4.42662 9.20479 8.9882 5.09289 15.9225 5.09289Z" fill="black" stroke="black" stroke-width="1.19286" stroke-miterlimit="3" stroke-linecap="square"/>
<path d="M2.23772 17.6857L2.23772 17.1203L56.9761 16.4244L56.9761 18.3613L2.23772 17.6857Z" fill="black" stroke="black" stroke-width="1.42857"/>
<path d="M56.976 15.1328C58.2426 15.1328 59.2706 16.1613 59.2706 17.4285C59.2706 18.6957 58.2426 19.7242 56.976 19.7242C55.7093 19.7242 54.6813 18.6957 54.6813 17.4285C54.6813 16.1613 55.7093 15.1328 56.976 15.1328Z" fill="black" stroke="black" stroke-width="1.42857"/>
<path d="M2.23755 16.2808C2.87088 16.2808 3.38489 16.795 3.38489 17.4286C3.38489 18.0622 2.87088 18.5764 2.23755 18.5764C1.60423 18.5764 1.09022 18.0622 1.09022 17.4286C1.09022 16.795 1.60423 16.2808 2.23755 16.2808Z" fill="black" stroke="black" stroke-width="1.42857"/>
</svg>
