<svg width="512" height="512" viewBox="0 0 512 512" fill="none" xmlns="http://www.w3.org/2000/svg">
<path d="M137.772 153.774C195.236 153.774 233.038 187.849 251.178 256C269.172 324.223 306.972 358.335 364.578 358.335C422.187 358.335 459.989 324.223 477.984 256C460.474 346.762 422.673 392.144 364.578 392.144C306.487 392.144 268.687 346.762 251.178 256C222.893 165.237 185.091 119.856 137.772 119.856C90.4529 119.856 52.651 165.237 24.3661 256C42.5056 187.849 80.3075 153.774 137.772 153.774Z" fill="white" stroke="white" stroke-width="6.29107" stroke-miterlimit="3" stroke-linecap="square"/>
<path d="M24.3661 258.13L24.3661 253.445L477.984 247.678L477.984 263.729L24.3661 258.13Z" fill="white" stroke="white" stroke-width="2.99575"/>
<path d="M477.984 236.975C488.481 236.975 497 245.498 497 255.999C497 266.501 488.481 275.024 477.984 275.024C467.487 275.024 458.968 266.501 458.968 255.999C458.968 245.498 467.487 236.975 477.984 236.975Z" fill="white" stroke="white" stroke-width="2.99575"/>
<path d="M24.3663 246.488C29.6147 246.488 33.8743 250.749 33.8743 256C33.8743 261.251 29.6147 265.512 24.3663 265.512C19.1179 265.512 14.8583 261.251 14.8583 256C14.8583 250.749 19.1179 246.488 24.3663 246.488Z" fill="white" stroke="white" stroke-width="2.99575"/>
</svg>
