<svg width="231" height="81" viewBox="0 0 231 81" fill="none" xmlns="http://www.w3.org/2000/svg">
<path d="M0.90979 63.4999C22.4098 75.9999 42.4819 85.0892 76.4098 73C119.91 57.5 121.41 19.5 176.41 19.5C178.91 19.5 181.41 19.5 190.91 18" stroke="white" stroke-width="3" stroke-dasharray="6 6"/>
<path d="M219.868 24.0873L230.305 2.26503C230.553 1.74607 230.1 1.16727 229.537 1.28361L202.173 6.93472C201.631 7.0467 201.431 7.71641 201.822 8.1079L205.834 12.1196C206.01 12.2954 206.266 12.364 206.506 12.2997L216.925 9.50806C217.67 9.30848 218.138 10.289 217.514 10.7426L210.467 15.8679C210.287 15.9988 210.181 16.2079 210.181 16.4305V22.8516C210.181 23.5219 211.036 23.8044 211.435 23.2661L213.573 20.3842C213.823 20.0473 214.312 20.0066 214.615 20.2977L218.758 24.2882C219.1 24.6173 219.663 24.5153 219.868 24.0873Z" fill="white" stroke="white" stroke-width="0.695652"/>
</svg>
