<svg width="148" height="89" viewBox="0 0 148 89" fill="none" xmlns="http://www.w3.org/2000/svg">
<path d="M73.3562 0.937134H0.00256348V74.2919H73.3562V0.937134Z" fill="#EF4023"/>
<path d="M60.0245 17.4392L76.5265 88.9137L148 72.4117L131.499 0.937134L60.0245 17.4392Z" fill="#EF4023"/>
<path d="M14.9351 69.2574L12.9129 67.3974L13.3427 66.9937C14.104 66.2726 14.4095 65.6581 14.4095 65.0271C14.413 64.1735 13.7441 63.4678 12.9686 63.4453C12.3435 63.4311 11.8036 63.8206 11.2625 64.9679C11.1263 65.258 10.9428 65.6226 10.6196 66.2324C9.84293 67.7064 8.79986 68.4417 7.57209 68.5518C7.29268 68.5778 7.00971 68.5707 6.7303 68.5328C4.76374 68.2794 3.36666 66.6586 3.37732 64.3688C3.38442 63.0084 3.86274 61.8754 4.77794 60.9862L5.07985 60.6962L6.98011 62.3679L7.04997 62.4638L6.93631 62.5408C6.26737 63.0155 5.8814 63.7318 5.8589 64.3132C5.83285 65.0591 6.42483 65.6771 7.08667 65.6688C7.65615 65.6664 8.16407 65.2509 8.71106 64.0184C8.88866 63.6217 9.08993 63.192 9.31488 62.7397C10.0383 61.2846 11.2222 60.5529 12.7555 60.5778C14.3467 60.6074 15.6041 61.4279 16.3133 62.935C16.582 63.501 16.7288 64.1628 16.743 64.9525C16.7691 66.5189 16.2505 67.8603 15.2027 68.9744L14.9351 69.2574ZM3.68988 56.7252V53.8801L9.65586 52.38C12.1078 51.7632 12.3588 51.704 13.615 51.5607L12.1114 51.3026C10.9606 51.1049 10.2336 50.9616 9.65231 50.8326L3.70528 49.5243V46.5466L12.1078 44.6641C12.3541 44.6049 12.6773 44.5505 13.5499 44.4297L12.1197 44.1609C10.8031 43.9076 10.1709 43.7667 9.65586 43.6352L3.70528 42.1091V39.2937L16.4056 43.0942V45.9913L11.3726 47.1161L9.14557 47.6347C8.60806 47.7554 7.93556 47.8809 6.67109 48.068C7.07956 48.1308 7.4904 48.2006 7.89887 48.2705C9.08993 48.4729 10.2774 48.7109 11.3762 48.9619L16.4056 50.1056V53.0561L3.68988 56.7252ZM16.4459 35.19H3.73014V32.4113H16.4459V35.19ZM14.9351 28.0401L12.9129 26.1801L13.3427 25.7763C14.104 25.0553 14.4095 24.4408 14.4095 23.8098C14.413 22.9561 13.7441 22.2505 12.9686 22.2292C12.3435 22.2138 11.8036 22.6033 11.2625 23.7506C11.1263 24.0407 10.9428 24.4053 10.6196 25.0151C9.84293 26.4891 8.79986 27.2243 7.57209 27.3344C7.29268 27.3605 7.00971 27.3534 6.7303 27.3155C4.76374 27.0621 3.36666 25.4413 3.37732 23.1515C3.38442 21.7911 3.86274 20.6593 4.77794 19.7689L5.07985 19.4788L6.98011 21.1518L7.04997 21.2477L6.93631 21.3246C6.26737 21.7982 5.8814 22.5157 5.8589 23.0958C5.83285 23.8417 6.42483 24.4598 7.08667 24.4527C7.65615 24.4491 8.16407 24.0335 8.71106 22.8022C8.88866 22.4044 9.08993 21.9746 9.31488 21.5224C10.0383 20.0673 11.2222 19.3356 12.7555 19.3604C14.3467 19.39 15.6041 20.2105 16.3133 21.7177C16.582 22.2836 16.7288 22.9455 16.743 23.7364C16.7691 25.3016 16.2505 26.643 15.2027 27.7571L14.9351 28.0401ZM14.9351 15.4273L12.9129 13.5673L13.3427 13.1636C14.104 12.4425 14.4095 11.8281 14.4095 11.197C14.413 10.3434 13.7441 9.63773 12.9686 9.61524C12.3435 9.60103 11.8036 9.99056 11.2625 11.1378C11.1263 11.4279 10.9428 11.7926 10.6196 12.4023C9.84293 13.8763 8.79986 14.6116 7.57209 14.7217C7.29268 14.7477 7.00971 14.7406 6.7303 14.7027C4.76374 14.4494 3.36666 12.8285 3.37732 10.5387C3.38442 9.17836 3.86274 8.04531 4.77794 7.15615L5.07985 6.86608L6.98011 8.53902L7.04997 8.63374L6.93631 8.71187C6.26737 9.18546 5.8814 9.90294 5.8589 10.4831C5.83285 11.229 6.42483 11.847 7.08667 11.8399C7.65615 11.8364 8.16407 11.4208 8.71106 10.1895C8.88866 9.79165 9.08993 9.36188 9.31488 8.90961C10.0383 7.45451 11.2222 6.72282 12.7555 6.74768C14.3467 6.77728 15.6041 7.59777 16.3133 9.10495C16.582 9.67089 16.7288 10.3327 16.743 11.1236C16.7691 12.6888 16.2505 14.0302 15.2027 15.1444L14.9351 15.4273Z" fill="white"/>
<path d="M64.0349 74.5767L45.674 30.1604H35.3936L17.5987 74.5767H27.982L31.3279 65.6094H50.0227L53.4716 74.5767H64.0349ZM46.858 57.3489H34.2736C34.8277 56.0489 35.3546 54.7501 35.8566 53.4371C38.2624 47.1716 39.6133 42.5778 40.5794 37.855C41.7113 43.3758 43.0491 47.7754 45.8409 54.8531C46.176 55.689 46.5099 56.5118 46.858 57.3489Z" fill="white"/>
<path d="M147.454 52.3148C147.556 38.8603 137.481 28.7457 123.451 29.0393C109.575 29.3199 99.8437 39.6369 100.213 53.2075C100.571 66.2039 109.714 75.1582 123.541 75.2848C138.08 75.4257 147.34 66.2938 147.454 52.3148ZM137.876 52.4427C137.825 60.9755 131.843 66.6632 123.91 66.4845C116.028 66.2938 110.557 61.217 109.778 53.8457C109.703 53.1317 109.676 52.4166 109.714 51.7027C110.021 44.8038 115.123 39.2166 121.729 38.2979C130.759 37.0228 137.927 43.3747 137.876 52.4427Z" fill="white"/>
<path d="M96.8478 43.5036C96.7957 41.1369 96.2819 39.091 95.3927 37.366C93.0899 32.8504 89.7961 30.8814 83.0925 30.3285C82.2827 30.2516 81.4847 30.2125 80.6737 30.1995L78.9877 30.1734L66.5715 30.1604V74.6158H76.299V57.7219L80.7637 57.7609C83.5697 57.7858 85.0875 57.6319 86.5414 57.2708C93.1799 55.676 97.0278 50.9022 96.8478 43.5036ZM87.4033 43.7227C87.4164 44.2377 87.3382 44.7646 87.2104 45.2666C86.5284 47.8535 84.4825 49.4613 81.8186 49.6153L81.0088 49.6413L76.2481 49.6543V38.087H79.6697L81.9476 38.1261C84.4055 38.2409 86.3614 39.696 87.1322 42.0758C87.3003 42.6027 87.3903 43.1568 87.4033 43.7227Z" fill="white"/>
</svg>
