<svg width="170" height="170" viewBox="0 0 170 170" fill="none" xmlns="http://www.w3.org/2000/svg">
<path d="M85 169.375C131.599 169.375 169.375 131.599 169.375 85C169.375 38.401 131.599 0.625 85 0.625C38.401 0.625 0.625 38.401 0.625 85C0.625 131.599 38.401 169.375 85 169.375Z" fill="black"/>
<path d="M85 167.688C129.735 167.688 166 131.423 166 86.6875C166 41.9524 129.735 5.6875 85 5.6875C40.2649 5.6875 4 41.9524 4 86.6875C4 131.423 40.2649 167.688 85 167.688Z" fill="url(#paint0_linear)"/>
<path d="M85 169.375C126.939 169.375 160.938 133.866 160.938 90.0625C160.938 46.2594 126.939 10.75 85 10.75C43.0609 10.75 9.0625 46.2594 9.0625 90.0625C9.0625 133.866 43.0609 169.375 85 169.375Z" fill="black"/>
<path d="M66.5708 105.377H61.6771V101.875C61.6771 101.425 61.5927 101.13 61.4239 100.989C61.2552 100.82 60.9464 100.736 60.4958 100.736H58.513C58.0633 100.736 57.7536 100.82 57.5849 100.989C57.4161 101.13 57.3317 101.425 57.3317 101.875V119.172C57.3317 119.622 57.4161 119.931 57.5849 120.1C57.7536 120.241 58.0633 120.311 58.513 120.311H60.4958C60.9464 120.311 61.2552 120.241 61.4239 120.1C61.5927 119.931 61.6771 119.622 61.6771 119.172V113.266H59.5677V109.848H66.5708V119.678C66.5708 122.462 65.0385 123.855 61.9724 123.855H57.0364C53.9711 123.855 52.438 122.462 52.438 119.678V101.369C52.438 98.5843 53.9711 97.1921 57.0364 97.1921H61.9724C65.0385 97.1921 66.5708 98.5843 66.5708 101.369V105.377Z" fill="#FF8B17"/>
<path d="M75.0935 120.1H83.1935V123.812H70.1998V97.1921H82.856V100.905H75.0935V108.287H81.6326V112.042H75.0935V120.1Z" fill="#FF8B17"/>
<path d="M90.8725 120.1H98.9725V123.812H85.9788V97.1921H98.635V100.905H90.8725V108.287H97.4116V112.042H90.8725V120.1Z" fill="#FF8B17"/>
<path d="M117.367 97.1921L111.883 110.439L117.325 123.812H112.094L106.82 110.439L112.136 97.1921H117.367ZM101.758 123.812V97.1921H106.609V123.812H101.758Z" fill="#FF8B17"/>
<path d="M68.0524 45.9006H74.9627V86.755C74.9627 91.21 72.5834 93.4375 67.8246 93.4375H59.3955C54.6368 93.4375 52.2574 91.21 52.2574 86.755V45.9006H59.1677V85.6919C59.1677 86.6031 59.3196 87.2106 59.6234 87.5144C59.9271 87.7675 60.5346 87.8941 61.4459 87.8941H65.7743C66.7362 87.8941 67.3437 87.7675 67.5968 87.5144C67.9005 87.2106 68.0524 86.6031 68.0524 85.6919V45.9006Z" fill="white"/>
<path d="M96.3366 85.6919V74.0734C96.3366 73.1622 96.1847 72.58 95.881 72.3269C95.6279 72.0231 95.0457 71.8713 94.1344 71.8713H88.5151C83.9082 71.8713 81.6047 69.6184 81.6047 65.1128V52.5831C81.6047 48.1281 83.9588 45.9006 88.6669 45.9006H96.1088C100.817 45.9006 103.171 48.1281 103.171 52.5831V59.5694H96.2607V53.6463C96.2607 52.735 96.1088 52.1528 95.805 51.8997C95.5013 51.5959 94.8938 51.4441 93.9825 51.4441H90.7932C89.8819 51.4441 89.2744 51.5959 88.9707 51.8997C88.6669 52.1528 88.5151 52.735 88.5151 53.6463V64.2016C88.5151 65.1128 88.6669 65.7203 88.9707 66.0241C89.2744 66.2772 89.8819 66.4038 90.7932 66.4038H96.3366C100.994 66.4038 103.323 68.6313 103.323 73.0863V86.755C103.323 91.21 100.943 93.4375 96.1847 93.4375H88.8188C84.1107 93.4375 81.7566 91.21 81.7566 86.755V79.7688H88.6669V85.6919C88.6669 86.6031 88.8188 87.2106 89.1226 87.5144C89.4263 87.7675 90.0338 87.8941 90.9451 87.8941H94.1344C95.0457 87.8941 95.6279 87.7675 95.881 87.5144C96.1847 87.2106 96.3366 86.6031 96.3366 85.6919Z" fill="white"/>
<path d="M110.713 45.9006H117.548V93.4375H110.713V45.9006Z" fill="white"/>
<defs>
<linearGradient id="paint0_linear" x1="85" y1="5.6875" x2="85" y2="167.688" gradientUnits="userSpaceOnUse">
<stop stop-color="#FF8B17"/>
<stop offset="1" stop-color="#FF9934" stop-opacity="0"/>
</linearGradient>
</defs>
</svg>
