<?xml version="1.0" encoding="UTF-8" standalone="no"?><!DOCTYPE svg PUBLIC "-//W3C//DTD SVG 1.1//EN" "http://www.w3.org/Graphics/SVG/1.1/DTD/svg11.dtd"><svg width="100%" height="100%" viewBox="0 0 1000 1000" version="1.1" xmlns="http://www.w3.org/2000/svg" xmlns:xlink="http://www.w3.org/1999/xlink" xml:space="preserve" xmlns:serif="http://www.serif.com/" style="fill-rule:evenodd;clip-rule:evenodd;stroke-linejoin:round;stroke-miterlimit:2;"><g id="affinity_photo_icon"><path d="M1000,30.001c0,-16.557 -13.443,-30 -30,-30l-940.002,0c-16.556,0 -30,13.443 -30,30l0,939.999c0,16.557 13.444,30 30,30l940.002,0c16.557,0 30,-13.443 30,-30l0,-939.999Z" style="fill:none;"/><g><clipPath id="_clip1"><path d="M1000,30.001c0,-16.557 -13.443,-30 -30,-30l-940.002,0c-16.556,0 -30,13.443 -30,30l0,939.999c0,16.557 13.444,30 30,30l940.002,0c16.557,0 30,-13.443 30,-30l0,-939.999Z"/></clipPath><g clip-path="url(#_clip1)"><path d="M1000,30.001c0,-16.557 -13.443,-30 -30,-30l-940.002,0c-16.556,0 -30,13.443 -30,30l0,939.999c0,16.557 13.444,30 30,30l940.002,0c16.557,0 30,-13.443 30,-30l0,-939.999Z" style="fill:#7e4dd2;"/><path d="M1000,30.001c0,-16.557 -13.443,-30 -30,-30l-560.001,0l-410.001,710.14l0,259.859c0,16.557 13.444,30 30,30l940.002,0c16.557,0 30,-13.443 30,-30l0,-939.999Z" style="fill:#7140c2;"/><path d="M1012.52,1012.86l-367.64,0.081l-212.412,-367.898l580.593,0c-0.141,122.54 -0.402,245.279 -0.541,367.817Zm-382.781,0.07l-579.812,0l290.07,-501.848l289.742,501.848Zm-594.632,0l-47.889,0l-0.162,-262.949l222.934,-386.247l200,0c-124.931,216.381 -249.952,432.817 -374.883,649.198l0,-0.002Zm508.223,-649.138c19.229,0.24 37.568,10.785 47.439,27.39c15.321,26.277 30.42,52.679 45.63,79.018c9.238,16.187 9.931,36.989 0.878,53.935c-0.217,0.409 -0.439,0.813 -0.67,1.22c-15.088,26.409 -30.409,52.679 -45.619,79.018c-9.459,16.243 -27.379,26.959 -46.27,27.587c-0.46,0.016 -1.379,0 -1.379,0l-85.531,0l-0.739,0c-18.859,-0.081 -37.141,-9.968 -47.13,-26.016c-0.251,-0.393 -0.489,-0.792 -0.73,-1.192c-15.311,-26.279 -30.411,-52.679 -45.621,-79.018c-9.33,-16.328 -9.78,-37.275 -0.889,-53.94c0.219,-0.407 0.45,-0.813 0.67,-1.217c15.09,-26.409 30.42,-52.679 45.619,-79.019c9.45,-16.205 27.39,-27.108 46.27,-27.736c0.471,-0.017 0.931,-0.024 1.39,-0.03c28.901,-0.123 57.79,-0.123 86.682,0Zm469.599,-376.723l0,644.891l-422.731,0l372.334,-644.891l50.397,0Zm-352.941,497.792l-259.931,-450.217l27.471,-47.575l519.863,0l-287.403,497.792Zm-92.499,-134.12l-349.901,-0.056l174.901,-302.937c58.3,100.979 116.698,202.016 175,302.993Z" style="fill:#58328a;fill-rule:nonzero;"/><path d="M27.642,1000l-27.5,0l-0.15,-246.558l217.501,-376.72l170,0l-359.851,623.278Zm972.362,-341.999l0,342l-347.66,-0.001l-197.451,-341.999l545.111,0Zm-392.661,341.999l-535.001,0l267.651,-463.063l267.35,463.063Zm392.661,-380.999l-387.391,0l357.381,-619l30,0l0.01,619Zm-457.041,-242.983c14.81,0.062 28.98,8.766 36.64,21.665c0.08,0.131 0.23,0.394 0.23,0.394l44.951,77.864c0,0 0.26,0.435 0.38,0.645c7.35,12.853 7.63,29.049 0.29,42.136c-15.071,26.364 -30.371,52.601 -45.551,78.902c-7.46,12.791 -21.58,21.136 -36.58,21.323c-28.63,0.12 -86.03,0.054 -86.11,0.054c-14.81,-0.062 -29.21,-7.963 -36.87,-20.862c-0.17,-0.28 -0.5,-0.85 -0.5,-0.85c0,0 -44.96,-77.871 -45.06,-78.052c-7.35,-12.853 -7.34,-29.459 0,-42.546l0.33,-0.577c0,0 30.09,-52.217 45.16,-78.326c7.46,-12.791 21.6,-21.591 36.6,-21.779c0.25,-0.001 0.75,-0.012 0.75,-0.012l84.83,0.021l0.51,0Zm-107.97,-376.017l490.001,0l-265,458.994l-245.001,-424.353l20,-34.641Zm110,337.75l-305,0l152.5,-264.138l152.5,264.138Z" style="fill:url(#_Radial2);"/><path d="M3.702,1041.47l-27,-0.86l0.32,-247.375l240.471,-416.514l170,0l-383.791,664.749Zm626.142,-2.5l-578.192,-3.17l288.341,-498.864l289.851,502.034Zm391.44,-1.49l-348.66,-2.36l-217.731,-377.12l567.711,0l-1.32,379.48Zm-796.861,-648.759l-235.411,407.737l-0.3,232.532l8.19,0.26l369.811,-640.529l-142.29,0Zm-152.041,635.199l536.611,2.94l-269,-465.934l-267.611,462.994Zm403.291,-353.92l203.911,353.17l329.74,2.23l1.23,-355.4l-534.881,0Zm66.78,-293.983l0.51,0l0.18,0.001l0.17,0.002l0.17,0.003l0.18,0.003l0.34,0.01l0.17,0.006l0.18,0.006l0.34,0.016l0.18,0.009l0.17,0.009l0.34,0.022l0.18,0.012l0.17,0.013l0.34,0.028l0.18,0.015l0.34,0.032l0.34,0.036l0.18,0.019l0.17,0.019l0.34,0.042l0.34,0.044l0.34,0.048l0.17,0.025l0.34,0.052l0.34,0.055l0.34,0.057l0.34,0.061l0.34,0.064l0.34,0.066l0.34,0.07l0.33,0.072l0.34,0.075l0.34,0.078l0.33,0.081l0.34,0.084l0.33,0.086l0.33,0.09l0.33,0.092l0.34,0.094l0.33,0.098l0.33,0.1l0.33,0.103l0.32,0.106l0.33,0.109l0.33,0.111l0.32,0.114l0.33,0.116l0.32,0.119l0.32,0.122l0.33,0.125l0.32,0.127l0.32,0.13l0.32,0.132l0.31,0.135l0.32,0.137l0.32,0.14l0.31,0.143l0.32,0.145l0.31,0.147l0.31,0.15l0.31,0.153l0.31,0.155l0.31,0.157l0.31,0.16l0.3,0.163l0.31,0.165l0.3,0.167l0.3,0.169l0.3,0.172l0.3,0.175l0.3,0.177l0.3,0.179l0.29,0.181l0.3,0.184l0.29,0.186l0.29,0.188l0.29,0.191l0.29,0.193l0.29,0.195l0.28,0.198l0.29,0.199l0.28,0.202l0.28,0.205l0.28,0.206l0.28,0.208l0.28,0.211l0.27,0.213l0.28,0.215l0.27,0.217l0.27,0.219l0.27,0.222l0.27,0.223l0.26,0.226l0.27,0.227l0.26,0.23l0.26,0.232l0.26,0.233l0.26,0.236l0.25,0.238l0.26,0.24l0.25,0.241l0.25,0.244l0.25,0.246l0.24,0.247l0.25,0.25l0.24,0.252l0.24,0.253l0.24,0.255l0.23,0.257l0.24,0.259l0.23,0.261l0.23,0.263l0.23,0.264l0.23,0.267l0.23,0.268l0.22,0.27l0.22,0.272l0.22,0.273l0.21,0.275l0.22,0.277l0.21,0.279l0.21,0.28l0.42,0.566l0.2,0.286l0.2,0.287l0.2,0.289l0.2,0.29l0.19,0.292l0.19,0.294l0.19,0.295l0.19,0.297l0.19,0.299l0.18,0.3l0.18,0.301l0.23,0.394l44.951,77.864l0.38,0.645l0.17,0.302l0.17,0.303l0.16,0.304l0.16,0.306l0.17,0.306l0.15,0.308l0.16,0.309l0.15,0.31l0.15,0.311l0.15,0.312l0.14,0.313l0.15,0.314l0.14,0.315l0.13,0.316l0.14,0.317l0.13,0.318l0.13,0.319l0.13,0.32l0.24,0.642l0.24,0.646l0.11,0.324l0.11,0.325l0.22,0.652l0.1,0.327l0.1,0.328l0.1,0.329l0.09,0.329l0.1,0.33l0.09,0.331l0.08,0.331l0.09,0.332l0.24,0.999l0.07,0.335l0.07,0.334l0.07,0.335l0.07,0.336l0.06,0.336l0.12,0.674l0.05,0.337l0.06,0.338l0.05,0.338l0.04,0.339l0.05,0.339l0.04,0.339l0.04,0.34l0.04,0.339l0.03,0.34l0.03,0.341l0.03,0.34l0.03,0.341l0.06,1.023l0.02,0.342l0.01,0.341l0.02,0.684l0,1.367l-0.01,0.342l0,0.341l-0.02,0.342l-0.01,0.342l-0.02,0.341l-0.02,0.342l-0.02,0.341l-0.02,0.341l-0.03,0.341l-0.03,0.341l-0.03,0.341l-0.04,0.341l-0.04,0.34l-0.04,0.34l-0.04,0.339l-0.05,0.34l-0.05,0.339l-0.05,0.339l-0.06,0.338l-0.05,0.338l-0.06,0.338l-0.07,0.337l-0.06,0.337l-0.07,0.337l-0.07,0.336l-0.08,0.335l-0.07,0.335l-0.08,0.335l-0.08,0.334l-0.09,0.333l-0.09,0.333l-0.09,0.332l-0.09,0.332l-0.1,0.331l-0.09,0.33l-0.11,0.33l-0.1,0.329l-0.11,0.328l-0.11,0.328l-0.11,0.327l-0.11,0.326l-0.12,0.326l-0.12,0.324l-0.13,0.324l-0.12,0.323l-0.13,0.322l-0.13,0.321l-0.14,0.321l-0.13,0.319l-0.15,0.319l-0.14,0.318l-0.14,0.316l-0.15,0.316l-0.15,0.315l-0.16,0.314l-0.15,0.312l-0.16,0.312l-0.17,0.31l-0.16,0.31l-0.17,0.308l-0.17,0.308l-1.41,2.471l-1.42,2.47l-1.41,2.47l-1.42,2.47l-1.42,2.468l-1.421,2.468l-1.42,2.468l-1.42,2.467l-1.42,2.467l-1.42,2.466l-2.85,4.931l-2.85,4.93l-2.85,4.929l-2.86,4.928l-2.85,4.928l-5.71,9.854l-2.85,4.928l-2.85,4.929l-2.85,4.929l-2.85,4.931l-0.18,0.299l-0.18,0.297l-0.18,0.296l-0.18,0.294l-0.18,0.292l-0.19,0.291l-0.19,0.289l-0.2,0.287l-0.19,0.286l-0.2,0.284l-0.2,0.282l-0.2,0.28l-0.2,0.279l-0.21,0.277l-0.21,0.275l-0.21,0.273l-0.21,0.271l-0.22,0.27l-0.21,0.268l-0.22,0.266l-0.22,0.264l-0.23,0.262l-0.22,0.261l-0.23,0.258l-0.23,0.257l-0.23,0.255l-0.23,0.253l-0.24,0.251l-0.24,0.249l-0.24,0.247l-0.24,0.245l-0.24,0.244l-0.25,0.241l-0.25,0.239l-0.24,0.237l-0.26,0.236l-0.25,0.233l-0.25,0.231l-0.26,0.23l-0.26,0.227l-0.26,0.225l-0.26,0.223l-0.26,0.221l-0.27,0.219l-0.26,0.217l-0.27,0.214l-0.27,0.213l-0.28,0.21l-0.27,0.209l-0.28,0.206l-0.27,0.204l-0.28,0.202l-0.28,0.2l-0.28,0.197l-0.28,0.195l-0.29,0.193l-0.29,0.191l-0.28,0.189l-0.29,0.186l-0.29,0.184l-0.3,0.182l-0.29,0.18l-0.29,0.177l-0.3,0.175l-0.3,0.173l-0.3,0.17l-0.3,0.168l-0.3,0.166l-0.3,0.163l-0.31,0.161l-0.3,0.159l-0.31,0.156l-0.31,0.154l-0.31,0.151l-0.31,0.149l-0.31,0.147l-0.31,0.144l-0.32,0.142l-0.31,0.139l-0.32,0.137l-0.32,0.134l-0.32,0.132l-0.32,0.129l-0.32,0.127l-0.32,0.124l-0.32,0.122l-0.32,0.119l-0.33,0.117l-0.33,0.114l-0.32,0.112l-0.33,0.109l-0.33,0.106l-0.33,0.104l-0.33,0.101l-0.33,0.098l-0.33,0.096l-0.34,0.094l-0.33,0.09l-0.34,0.088l-0.33,0.085l-0.34,0.083l-0.34,0.08l-0.33,0.077l-0.34,0.074l-0.34,0.072l-0.34,0.069l-0.34,0.066l-0.34,0.063l-0.35,0.061l-0.34,0.058l-0.34,0.055l-0.35,0.052l-0.34,0.049l-0.35,0.047l-0.34,0.044l-0.35,0.041l-0.35,0.038l-0.34,0.035l-0.35,0.032l-0.35,0.03l-0.35,0.026l-0.35,0.024l-0.35,0.02l-0.35,0.018l-0.35,0.015l-0.35,0.012l-0.35,0.009l-0.35,0.005l-2.77,0.011l-2.92,0.01l-3.05,0.008l-3.18,0.008l-3.28,0.007l-3.37,0.006l-3.45,0.005l-3.5,0.004l-7.12,0.007l-7.17,0.004l-7.08,0.002l-6.87,0l-6.54,-0.001l-6.08,-0.002l-5.49,-0.003l-4.78,-0.004l-6.91,-0.005l-2.55,-0.003l-0.35,-0.003l-0.34,-0.006l-0.35,-0.008l-0.35,-0.012l-0.34,-0.014l-0.35,-0.017l-0.34,-0.02l-0.35,-0.023l-0.34,-0.025l-0.35,-0.029l-0.34,-0.031l-0.35,-0.034l-0.34,-0.036l-0.34,-0.04l-0.35,-0.042l-0.34,-0.045l-0.34,-0.048l-0.34,-0.05l-0.35,-0.053l-0.34,-0.056l-0.34,-0.059l-0.34,-0.061l-0.33,-0.064l-0.34,-0.067l-0.34,-0.069l-0.34,-0.072l-0.34,-0.075l-0.33,-0.077l-0.34,-0.08l-0.33,-0.083l-0.34,-0.085l-0.33,-0.088l-0.33,-0.09l-0.33,-0.093l-0.33,-0.096l-0.34,-0.098l-0.33,-0.101l-0.32,-0.103l-0.33,-0.106l-0.33,-0.109l-0.32,-0.111l-0.33,-0.114l-0.33,-0.116l-0.32,-0.118l-0.32,-0.121l-0.32,-0.124l-0.32,-0.126l-0.32,-0.129l-0.32,-0.131l-0.32,-0.134l-0.31,-0.136l-0.32,-0.138l-0.31,-0.141l-0.32,-0.144l-0.31,-0.145l-0.31,-0.149l-0.31,-0.15l-0.31,-0.153l-0.31,-0.156l-0.3,-0.158l-0.31,-0.16l-0.3,-0.163l-0.3,-0.165l-0.3,-0.167l-0.3,-0.17l-0.3,-0.172l-0.3,-0.174l-0.3,-0.177l-0.29,-0.179l-0.29,-0.181l-0.3,-0.184l-0.29,-0.186l-0.28,-0.188l-0.29,-0.191l-0.29,-0.192l-0.28,-0.195l-0.28,-0.198l-0.29,-0.199l-0.27,-0.202l-0.28,-0.204l-0.28,-0.206l-0.27,-0.209l-0.28,-0.21l-0.27,-0.213l-0.27,-0.215l-0.27,-0.217l-0.26,-0.22l-0.27,-0.221l-0.26,-0.224l-0.26,-0.226l-0.26,-0.228l-0.26,-0.23l-0.26,-0.232l-0.25,-0.234l-0.25,-0.237l-0.25,-0.238l-0.25,-0.241l-0.25,-0.243l-0.24,-0.244l-0.24,-0.247l-0.24,-0.249l-0.24,-0.251l-0.24,-0.253l-0.23,-0.255l-0.24,-0.257l-0.23,-0.259l-0.23,-0.262l-0.22,-0.263l-0.23,-0.265l-0.22,-0.267l-0.22,-0.269l-0.22,-0.271l-0.21,-0.273l-0.22,-0.275l-0.21,-0.277l-0.21,-0.278l-0.2,-0.281l-0.21,-0.283l-0.2,-0.284l-0.2,-0.287l-0.2,-0.288l-0.1,-0.145l-0.09,-0.146l-0.1,-0.145l-0.1,-0.147l-0.09,-0.146l-0.1,-0.148l-0.09,-0.147l-0.1,-0.149l-0.09,-0.148l-0.09,-0.149l-0.09,-0.15l-0.09,-0.15l-0.1,-0.15l-0.08,-0.151l-0.5,-0.85l-45.06,-78.052l-0.09,-0.151l-0.08,-0.151l-0.08,-0.152l-0.09,-0.152l-0.08,-0.152l-0.08,-0.152l-0.17,-0.306l-0.16,-0.307l-0.15,-0.309l-0.16,-0.31l-0.15,-0.311l-0.15,-0.312l-0.15,-0.313l-0.14,-0.315l-0.14,-0.315l-0.14,-0.317l-0.14,-0.318l-0.13,-0.319l-0.13,-0.32l-0.13,-0.321l-0.12,-0.322l-0.13,-0.323l-0.12,-0.324l-0.11,-0.325l-0.12,-0.326l-0.11,-0.327l-0.11,-0.328l-0.1,-0.329l-0.11,-0.329l-0.1,-0.331l-0.1,-0.331l-0.09,-0.332l-0.09,-0.332l-0.09,-0.334l-0.09,-0.334l-0.09,-0.335l-0.08,-0.336l-0.08,-0.336l-0.07,-0.337l-0.08,-0.337l-0.07,-0.339l-0.07,-0.338l-0.06,-0.34l-0.07,-0.339l-0.06,-0.341l-0.05,-0.341l-0.06,-0.341l-0.05,-0.342l-0.05,-0.342l-0.05,-0.343l-0.04,-0.343l-0.04,-0.343l-0.04,-0.344l-0.04,-0.344l-0.03,-0.344l-0.04,-0.345l-0.02,-0.345l-0.03,-0.345l-0.02,-0.346l-0.02,-0.346l-0.02,-0.345l-0.01,-0.346l-0.01,-0.347l-0.01,-0.346l-0.01,-0.346l0,-0.347l-0.01,-0.346l0.01,-0.347l0,-0.347l0.01,-0.346l0.01,-0.347l0.01,-0.347l0.01,-0.346l0.02,-0.346l0.02,-0.347l0.02,-0.346l0.03,-0.346l0.03,-0.346l0.03,-0.346l0.03,-0.345l0.04,-0.345l0.04,-0.345l0.04,-0.345l0.04,-0.345l0.05,-0.344l0.05,-0.344l0.05,-0.343l0.06,-0.343l0.06,-0.343l0.06,-0.342l0.06,-0.342l0.07,-0.341l0.06,-0.341l0.08,-0.341l0.07,-0.34l0.08,-0.339l0.08,-0.339l0.08,-0.338l0.08,-0.338l0.09,-0.337l0.09,-0.336l0.09,-0.336l0.1,-0.335l0.1,-0.334l0.1,-0.334l0.1,-0.332l0.11,-0.332l0.11,-0.332l0.11,-0.33l0.11,-0.33l0.12,-0.328l0.12,-0.328l0.12,-0.327l0.13,-0.326l0.13,-0.326l0.13,-0.324l0.13,-0.323l0.13,-0.322l0.14,-0.321l0.14,-0.321l0.15,-0.319l0.14,-0.318l0.15,-0.317l0.15,-0.315l0.16,-0.315l0.16,-0.314l0.16,-0.312l0.16,-0.311l0.16,-0.31l0.17,-0.309l0.17,-0.307l0.33,-0.577l4.94,-8.567l5.38,-9.332l6.61,-11.473l7.32,-12.698l7.5,-13.003l7.15,-12.391l3.27,-5.68l2.99,-5.182l0.18,-0.299l0.18,-0.298l0.18,-0.296l0.18,-0.294l0.19,-0.293l0.19,-0.292l0.19,-0.29l0.19,-0.288l0.19,-0.287l0.2,-0.286l0.2,-0.283l0.2,-0.283l0.21,-0.28l0.2,-0.279l0.21,-0.277l0.21,-0.276l0.22,-0.273l0.21,-0.273l0.22,-0.27l0.22,-0.269l0.22,-0.267l0.22,-0.265l0.23,-0.264l0.22,-0.262l0.24,-0.26l0.23,-0.258l0.23,-0.256l0.24,-0.255l0.23,-0.253l0.24,-0.251l0.25,-0.249l0.24,-0.247l0.24,-0.245l0.25,-0.244l0.25,-0.241l0.25,-0.24l0.26,-0.237l0.25,-0.236l0.26,-0.234l0.25,-0.231l0.27,-0.23l0.26,-0.228l0.26,-0.226l0.27,-0.223l0.26,-0.222l0.27,-0.22l0.27,-0.217l0.27,-0.216l0.28,-0.213l0.27,-0.211l0.28,-0.209l0.28,-0.207l0.28,-0.205l0.28,-0.203l0.28,-0.2l0.29,-0.199l0.29,-0.196l0.28,-0.194l0.29,-0.191l0.29,-0.19l0.3,-0.187l0.29,-0.185l0.3,-0.182l0.29,-0.181l0.3,-0.178l0.3,-0.176l0.3,-0.173l0.3,-0.171l0.31,-0.169l0.3,-0.166l0.31,-0.164l0.3,-0.161l0.31,-0.159l0.31,-0.157l0.31,-0.154l0.31,-0.152l0.32,-0.149l0.31,-0.147l0.32,-0.144l0.31,-0.142l0.32,-0.139l0.32,-0.137l0.32,-0.134l0.32,-0.132l0.32,-0.129l0.33,-0.127l0.32,-0.124l0.33,-0.121l0.32,-0.118l0.33,-0.116l0.33,-0.114l0.33,-0.111l0.33,-0.108l0.33,-0.105l0.33,-0.103l0.33,-0.099l0.33,-0.098l0.34,-0.094l0.33,-0.092l0.34,-0.089l0.34,-0.086l0.33,-0.083l0.34,-0.081l0.34,-0.077l0.34,-0.075l0.34,-0.072l0.34,-0.069l0.34,-0.067l0.35,-0.063l0.34,-0.061l0.34,-0.057l0.35,-0.055l0.17,-0.026l0.17,-0.025l0.17,-0.025l0.18,-0.024l0.17,-0.023l0.17,-0.023l0.18,-0.022l0.17,-0.021l0.17,-0.02l0.18,-0.02l0.17,-0.018l0.17,-0.018l0.18,-0.018l0.17,-0.016l0.17,-0.016l0.18,-0.015l0.17,-0.014l0.18,-0.013l0.17,-0.013l0.18,-0.012l0.17,-0.011l0.18,-0.011l0.17,-0.009l0.18,-0.009l0.17,-0.008l0.18,-0.007l0.17,-0.007l0.18,-0.006l0.17,-0.005l0.18,-0.004l0.17,-0.003l0.18,-0.003l0.23,-0.002l0.24,-0.004l0.28,-0.006l84.83,0.021Zm478.181,242.983l-408.021,0l377.981,-654.68l31.11,-1.909l-1.07,656.589Zm-563.061,-231.001l-0.31,0.006l-0.24,0.002l-0.12,0.002l-0.12,0.002l-0.13,0.003l-0.12,0.004l-0.12,0.004l-0.12,0.004l-0.12,0.005l-0.12,0.006l-0.13,0.006l-0.12,0.007l-0.12,0.007l-0.12,0.008l-0.12,0.008l-0.13,0.009l-0.12,0.01l-0.12,0.009l-0.12,0.011l-0.12,0.011l-0.12,0.011l-0.13,0.012l-0.12,0.013l-0.12,0.013l-0.12,0.014l-0.12,0.014l-0.12,0.015l-0.13,0.015l-0.12,0.016l-0.12,0.016l-0.12,0.017l-0.12,0.017l-0.12,0.019l-0.11,0.016l-0.26,0.04l-0.24,0.041l-0.24,0.043l-0.24,0.044l-0.24,0.047l-0.25,0.049l-0.24,0.051l-0.24,0.053l-0.24,0.056l-0.24,0.057l-0.24,0.059l-0.24,0.061l-0.24,0.064l-0.24,0.065l-0.23,0.068l-0.24,0.069l-0.24,0.072l-0.24,0.073l-0.24,0.076l-0.23,0.077l-0.24,0.08l-0.23,0.081l-0.24,0.084l-0.24,0.085l-0.23,0.088l-0.23,0.089l-0.24,0.091l-0.23,0.094l-0.23,0.095l-0.23,0.098l-0.23,0.098l-0.23,0.101l-0.23,0.103l-0.23,0.105l-0.23,0.107l-0.23,0.109l-0.23,0.11l-0.22,0.112l-0.23,0.114l-0.22,0.116l-0.23,0.118l-0.22,0.12l-0.22,0.121l-0.22,0.123l-0.23,0.125l-0.22,0.127l-0.22,0.128l-0.21,0.131l-0.22,0.132l-0.22,0.133l-0.21,0.136l-0.22,0.137l-0.21,0.139l-0.21,0.141l-0.21,0.142l-0.21,0.144l-0.21,0.145l-0.21,0.148l-0.21,0.148l-0.2,0.15l-0.21,0.153l-0.2,0.153l-0.2,0.155l-0.2,0.157l-0.2,0.158l-0.2,0.16l-0.2,0.161l-0.2,0.163l-0.19,0.164l-0.2,0.166l-0.19,0.167l-0.19,0.169l-0.19,0.171l-0.19,0.171l-0.18,0.172l-0.19,0.175l-0.18,0.175l-0.19,0.177l-0.18,0.179l-0.18,0.179l-0.17,0.182l-0.18,0.182l-0.18,0.183l-0.17,0.185l-0.17,0.187l-0.17,0.186l-0.17,0.189l-0.17,0.189l-0.17,0.191l-0.16,0.193l-0.16,0.194l-0.17,0.194l-0.15,0.196l-0.16,0.196l-0.16,0.197l-0.15,0.199l-0.16,0.2l-0.15,0.202l-0.15,0.202l-0.14,0.203l-0.15,0.204l-0.14,0.205l-0.15,0.206l-0.14,0.207l-0.14,0.208l-0.13,0.209l-0.14,0.209l-0.13,0.212l-0.13,0.211l-0.13,0.212l-0.13,0.214l-0.13,0.213l-2.96,5.138l-3.28,5.678l-7.15,12.39l-7.49,13.002l-7.32,12.696l-6.61,11.473l-5.38,9.332l-4.93,8.549l-0.28,0.494l-0.11,0.198l-0.12,0.22l-0.12,0.22l-0.11,0.223l-0.12,0.223l-0.11,0.224l-0.11,0.225l-0.11,0.225l-0.11,0.228l-0.1,0.228l-0.11,0.229l-0.1,0.229l-0.1,0.231l-0.09,0.233l-0.1,0.231l-0.09,0.233l-0.1,0.235l-0.09,0.235l-0.08,0.236l-0.09,0.236l-0.08,0.237l-0.09,0.239l-0.08,0.239l-0.08,0.24l-0.07,0.24l-0.08,0.241l-0.07,0.241l-0.07,0.244l-0.07,0.243l-0.07,0.244l-0.07,0.244l-0.06,0.244l-0.06,0.246l-0.06,0.247l-0.06,0.246l-0.05,0.246l-0.06,0.248l-0.05,0.249l-0.05,0.249l-0.05,0.248l-0.04,0.249l-0.05,0.25l-0.04,0.25l-0.04,0.252l-0.04,0.25l-0.04,0.251l-0.03,0.252l-0.03,0.251l-0.03,0.253l-0.03,0.252l-0.03,0.252l-0.02,0.254l-0.03,0.253l-0.02,0.252l-0.02,0.253l-0.01,0.254l-0.02,0.253l-0.01,0.254l-0.01,0.253l-0.01,0.254l-0.01,0.253l0,0.508l-0.01,0.253l0.01,0.253l0,0.507l0.01,0.253l0.01,0.252l0.02,0.506l0.02,0.253l0.01,0.252l0.04,0.504l0.02,0.25l0.06,0.502l0.02,0.251l0.03,0.25l0.04,0.248l0.03,0.25l0.04,0.248l0.03,0.249l0.04,0.248l0.05,0.247l0.04,0.246l0.05,0.247l0.04,0.246l0.1,0.488l0.06,0.244l0.05,0.244l0.06,0.243l0.06,0.242l0.06,0.24l0.06,0.241l0.07,0.24l0.06,0.239l0.14,0.476l0.08,0.237l0.07,0.235l0.08,0.236l0.07,0.234l0.08,0.234l0.09,0.233l0.08,0.231l0.08,0.23l0.18,0.46l0.09,0.228l0.09,0.226l0.1,0.226l0.09,0.226l0.1,0.224l0.1,0.223l0.1,0.222l0.11,0.221l0.1,0.219l0.11,0.22l0.11,0.218l0.22,0.432l0.12,0.227l0.05,0.093l0.12,0.214l0.12,0.212l0.05,0.094l45.03,77.999l0.45,0.773l0.04,0.074l0.07,0.107l0.06,0.105l0.07,0.105l0.06,0.105l0.07,0.104l0.06,0.104l0.07,0.105l0.14,0.208l0.06,0.103l0.07,0.102l0.07,0.103l0.06,0.093l0.15,0.213l0.14,0.202l0.14,0.201l0.15,0.2l0.14,0.199l0.15,0.198l0.15,0.196l0.15,0.194l0.16,0.194l0.15,0.193l0.16,0.192l0.16,0.189l0.32,0.376l0.16,0.186l0.16,0.184l0.17,0.184l0.17,0.182l0.17,0.181l0.17,0.179l0.17,0.178l0.17,0.177l0.18,0.175l0.17,0.175l0.18,0.172l0.18,0.171l0.18,0.17l0.19,0.168l0.18,0.167l0.19,0.165l0.18,0.165l0.19,0.163l0.19,0.161l0.19,0.16l0.19,0.158l0.2,0.156l0.19,0.156l0.2,0.154l0.19,0.152l0.2,0.151l0.2,0.149l0.21,0.148l0.2,0.146l0.2,0.144l0.21,0.144l0.2,0.141l0.21,0.14l0.21,0.138l0.21,0.137l0.21,0.135l0.21,0.134l0.21,0.132l0.22,0.13l0.21,0.128l0.22,0.127l0.22,0.125l0.22,0.124l0.21,0.122l0.22,0.12l0.23,0.118l0.22,0.117l0.22,0.115l0.22,0.113l0.23,0.112l0.23,0.11l0.22,0.108l0.23,0.106l0.23,0.105l0.46,0.204l0.23,0.099l0.23,0.097l0.23,0.096l0.23,0.093l0.24,0.092l0.23,0.09l0.24,0.089l0.23,0.086l0.24,0.085l0.24,0.082l0.23,0.081l0.24,0.079l0.24,0.077l0.24,0.076l0.24,0.073l0.24,0.071l0.24,0.07l0.24,0.068l0.24,0.065l0.25,0.064l0.24,0.062l0.24,0.06l0.25,0.058l0.24,0.056l0.24,0.054l0.25,0.052l0.24,0.051l0.25,0.048l0.24,0.046l0.25,0.044l0.24,0.043l0.25,0.04l0.25,0.038l0.24,0.037l0.25,0.034l0.25,0.033l0.24,0.03l0.25,0.028l0.25,0.027l0.25,0.024l0.24,0.023l0.25,0.02l0.25,0.018l0.25,0.017l0.24,0.014l0.25,0.012l0.25,0.011l0.25,0.008l0.25,0.006l0.24,0.004l0.26,0.002l2.5,0.003l6.91,0.005l4.78,0.004l5.48,0.003l6.08,0.002l6.54,0.001l6.87,0l7.08,-0.002l7.16,-0.004l7.12,-0.007l3.5,-0.004l3.44,-0.005l3.37,-0.006l3.28,-0.007l3.17,-0.008l3.05,-0.008l2.91,-0.01l2.68,-0.01l0.23,-0.004l0.25,-0.006l0.25,-0.009l0.25,-0.01l0.25,-0.013l0.24,-0.014l0.25,-0.017l0.25,-0.019l0.25,-0.021l0.25,-0.023l0.24,-0.025l0.25,-0.027l0.25,-0.03l0.25,-0.031l0.24,-0.033l0.25,-0.036l0.25,-0.037l0.24,-0.039l0.25,-0.042l0.24,-0.043l0.25,-0.046l0.24,-0.047l0.25,-0.05l0.24,-0.051l0.24,-0.053l0.25,-0.056l0.24,-0.057l0.24,-0.06l0.24,-0.061l0.25,-0.063l0.24,-0.066l0.24,-0.067l0.24,-0.069l0.24,-0.071l0.24,-0.074l0.23,-0.074l0.24,-0.077l0.24,-0.079l0.23,-0.081l0.24,-0.082l0.23,-0.085l0.24,-0.086l0.23,-0.088l0.24,-0.09l0.23,-0.093l0.23,-0.093l0.23,-0.095l0.23,-0.098l0.23,-0.099l0.23,-0.102l0.23,-0.103l0.23,-0.104l0.22,-0.106l0.23,-0.109l0.22,-0.11l0.23,-0.112l0.22,-0.113l0.22,-0.116l0.23,-0.117l0.22,-0.119l0.22,-0.12l0.21,-0.122l0.22,-0.125l0.22,-0.125l0.21,-0.127l0.22,-0.129l0.21,-0.131l0.22,-0.132l0.21,-0.134l0.21,-0.135l0.21,-0.138l0.2,-0.139l0.21,-0.141l0.21,-0.141l0.2,-0.143l0.2,-0.146l0.21,-0.147l0.2,-0.148l0.2,-0.15l0.2,-0.151l0.19,-0.153l0.2,-0.154l0.2,-0.156l0.19,-0.157l0.19,-0.159l0.19,-0.16l0.19,-0.162l0.19,-0.163l0.19,-0.165l0.19,-0.166l0.18,-0.167l0.18,-0.169l0.18,-0.17l0.18,-0.172l0.18,-0.173l0.18,-0.173l0.18,-0.176l0.17,-0.177l0.17,-0.178l0.17,-0.18l0.17,-0.181l0.17,-0.182l0.17,-0.183l0.16,-0.185l0.17,-0.186l0.16,-0.187l0.16,-0.188l0.16,-0.189l0.16,-0.192l0.15,-0.191l0.15,-0.194l0.16,-0.194l0.15,-0.195l0.15,-0.197l0.14,-0.197l0.15,-0.2l0.14,-0.2l0.14,-0.201l0.15,-0.202l0.13,-0.203l0.14,-0.205l0.14,-0.206l0.13,-0.205l0.13,-0.208l0.13,-0.209l0.13,-0.21l0.13,-0.211l0.12,-0.213l2.83,-4.891l2.85,-4.933l2.85,-4.931l2.86,-4.93l5.71,-9.855l2.85,-4.926l2.85,-4.927l2.85,-4.925l2.85,-4.926l2.84,-4.927l1.42,-2.462l1.42,-2.464l1.42,-2.463l1.42,-2.464l1.42,-2.464l1.41,-2.465l1.42,-2.464l1.41,-2.465l1.41,-2.466l1.38,-2.402l0.11,-0.195l0.12,-0.219l0.11,-0.219l0.12,-0.221l0.11,-0.222l0.11,-0.222l0.11,-0.222l0.11,-0.224l0.11,-0.225l0.1,-0.225l0.1,-0.226l0.1,-0.226l0.1,-0.227l0.09,-0.229l0.1,-0.229l0.09,-0.229l0.09,-0.231l0.09,-0.23l0.08,-0.232l0.09,-0.233l0.08,-0.231l0.08,-0.234l0.08,-0.234l0.07,-0.235l0.08,-0.235l0.07,-0.235l0.07,-0.237l0.07,-0.237l0.07,-0.237l0.06,-0.239l0.06,-0.238l0.061,-0.238l0.06,-0.241l0.06,-0.239l0.06,-0.24l0.05,-0.242l0.05,-0.241l0.05,-0.242l0.05,-0.241l0.04,-0.242l0.04,-0.244l0.04,-0.244l0.04,-0.243l0.04,-0.243l0.04,-0.244l0.03,-0.246l0.03,-0.244l0.03,-0.245l0.03,-0.246l0.03,-0.245l0.02,-0.245l0.02,-0.247l0.02,-0.247l0.02,-0.246l0.02,-0.245l0.01,-0.248l0.01,-0.247l0.01,-0.247l0.01,-0.247l0.01,-0.247l0,-1.236l-0.01,-0.248l0,-0.247l-0.01,-0.248l-0.01,-0.247l-0.02,-0.246l-0.01,-0.248l-0.02,-0.247l-0.02,-0.246l-0.02,-0.247l-0.02,-0.247l-0.03,-0.246l-0.02,-0.247l-0.03,-0.245l-0.03,-0.245l-0.03,-0.246l-0.04,-0.246l-0.04,-0.244l-0.03,-0.245l-0.04,-0.245l-0.05,-0.244l-0.04,-0.243l-0.05,-0.243l-0.05,-0.243l-0.04,-0.242l-0.06,-0.243l-0.05,-0.243l-0.06,-0.241l-0.05,-0.24l-0.061,-0.241l-0.06,-0.24l-0.07,-0.239l-0.06,-0.239l-0.07,-0.238l-0.07,-0.238l-0.07,-0.238l-0.07,-0.236l-0.07,-0.237l-0.08,-0.236l-0.08,-0.234l-0.08,-0.234l-0.08,-0.234l-0.09,-0.233l-0.08,-0.233l-0.09,-0.231l-0.09,-0.231l-0.09,-0.23l-0.09,-0.229l-0.1,-0.23l-0.09,-0.228l-0.1,-0.228l-0.1,-0.225l-0.1,-0.226l-0.11,-0.225l-0.1,-0.224l-0.11,-0.224l-0.11,-0.221l-0.11,-0.221l-0.12,-0.221l-0.11,-0.22l-0.12,-0.219l-0.12,-0.219l-0.12,-0.216l-0.12,-0.215l-0.35,-0.603l-44.94,-77.843l-0.18,-0.308l-0.12,-0.196l-0.13,-0.218l-0.13,-0.217l-0.14,-0.215l-0.14,-0.216l-0.14,-0.213l-0.14,-0.213l-0.15,-0.211l-0.14,-0.211l-0.15,-0.209l-0.15,-0.209l-0.15,-0.208l-0.15,-0.205l-0.15,-0.206l-0.16,-0.205l-0.15,-0.201l-0.16,-0.202l-0.16,-0.201l-0.16,-0.199l-0.17,-0.198l-0.16,-0.197l-0.17,-0.196l-0.17,-0.194l-0.17,-0.192l-0.17,-0.192l-0.17,-0.191l-0.18,-0.189l-0.17,-0.187l-0.18,-0.187l-0.18,-0.185l-0.18,-0.184l-0.18,-0.182l-0.18,-0.181l-0.19,-0.18l-0.18,-0.178l-0.19,-0.177l-0.19,-0.175l-0.19,-0.173l-0.19,-0.173l-0.19,-0.171l-0.19,-0.169l-0.2,-0.167l-0.19,-0.166l-0.2,-0.165l-0.2,-0.163l-0.2,-0.162l-0.2,-0.16l-0.2,-0.158l-0.2,-0.157l-0.21,-0.155l-0.2,-0.153l-0.21,-0.152l-0.21,-0.151l-0.2,-0.148l-0.21,-0.147l-0.21,-0.145l-0.21,-0.143l-0.21,-0.142l-0.22,-0.14l-0.21,-0.138l-0.22,-0.136l-0.21,-0.135l-0.22,-0.133l-0.22,-0.131l-0.21,-0.129l-0.22,-0.127l-0.22,-0.127l-0.23,-0.124l-0.22,-0.121l-0.22,-0.121l-0.22,-0.118l-0.22,-0.116l-0.23,-0.115l-0.22,-0.113l-0.23,-0.111l-0.23,-0.108l-0.22,-0.108l-0.23,-0.105l-0.23,-0.103l-0.23,-0.101l-0.22,-0.099l-0.23,-0.098l-0.23,-0.095l-0.23,-0.093l-0.24,-0.092l-0.23,-0.09l-0.23,-0.087l-0.23,-0.086l-0.23,-0.083l-0.24,-0.082l-0.23,-0.079l-0.24,-0.078l-0.23,-0.075l-0.23,-0.073l-0.24,-0.072l-0.23,-0.07l-0.24,-0.067l-0.23,-0.065l-0.24,-0.063l-0.24,-0.062l-0.23,-0.059l-0.24,-0.057l-0.24,-0.055l-0.23,-0.053l-0.24,-0.051l-0.24,-0.048l-0.23,-0.047l-0.24,-0.045l-0.24,-0.042l-0.24,-0.041l-0.24,-0.038l-0.25,-0.038l-0.1,-0.016l-0.12,-0.016l-0.12,-0.017l-0.12,-0.015l-0.12,-0.015l-0.12,-0.015l-0.12,-0.015l-0.11,-0.013l-0.12,-0.013l-0.12,-0.013l-0.12,-0.012l-0.12,-0.011l-0.12,-0.011l-0.12,-0.011l-0.12,-0.01l-0.12,-0.009l-0.11,-0.009l-0.12,-0.008l-0.12,-0.008l-0.12,-0.007l-0.12,-0.007l-0.12,-0.006l-0.12,-0.005l-0.12,-0.006l-0.12,-0.004l-0.11,-0.004l-0.12,-0.004l-0.12,-0.003l-0.12,-0.002l-0.12,-0.002l-0.12,-0.001l-0.11,-0.001l-0.47,0l-84.7,-0.021l-0.18,0.003Zm540.191,-412.096l-364.36,631.097l375.25,0l1.03,-631.828l-11.92,0.731Zm-337.77,483.091l-245.001,-424.353l39.05,-67.627l491.251,-2.167l-285.3,494.147Zm-199.011,-480.011l-32.13,55.658l231.141,400.353l264.46,-458.055l-463.471,2.044Zm84.01,358.767l-305,0l152.5,-264.138l152.5,264.138Zm-284.21,-12l263.43,0l-131.72,-228.138l-131.71,228.138Z" style="fill:url(#_Linear3);"/></g></g></g><defs><radialGradient id="_Radial2" cx="0" cy="0" r="1" gradientUnits="userSpaceOnUse" gradientTransform="matrix(1187.94,0,0,1187.94,764.334,-187.941)"><stop offset="0" style="stop-color:#f9a6ff;stop-opacity:1"/><stop offset="1" style="stop-color:#ea73ff;stop-opacity:1"/></radialGradient><linearGradient id="_Linear3" x1="0" y1="0" x2="1" y2="0" gradientUnits="userSpaceOnUse" gradientTransform="matrix(6.12323e-14,999.999,-999.999,6.12323e-14,38282.6,0.001)"><stop offset="0" style="stop-color:#f7b3ff;stop-opacity:1"/><stop offset="1" style="stop-color:#ee8aff;stop-opacity:1"/></linearGradient></defs></svg>