<?xml version="1.0" encoding="UTF-8" standalone="no"?><!DOCTYPE svg PUBLIC "-//W3C//DTD SVG 1.1//EN" "http://www.w3.org/Graphics/SVG/1.1/DTD/svg11.dtd"><svg width="100%" height="100%" viewBox="0 0 1000 1000" version="1.1" xmlns="http://www.w3.org/2000/svg" xmlns:xlink="http://www.w3.org/1999/xlink" xml:space="preserve" xmlns:serif="http://www.serif.com/" style="fill-rule:evenodd;clip-rule:evenodd;stroke-linejoin:round;stroke-miterlimit:2;"><g><path d="M999.998,30.001c0,-16.556 -13.443,-30 -30,-30l-939.998,0c-16.556,0 -30,13.444 -30,30l0,940c0,16.556 13.444,29.999 30,29.999l939.998,0c16.557,0 30,-13.443 30,-29.999l0,-940Z" style="fill:#144e8c;"/><g><clipPath id="_clip1"><path d="M999.998,30.001c0,-16.556 -13.443,-30 -30,-30l-939.998,0c-16.556,0 -30,13.444 -30,30l0,940c0,16.556 13.444,29.999 30,29.999l939.998,0c16.557,0 30,-13.443 30,-29.999l0,-940Z"/></clipPath><g clip-path="url(#_clip1)"><path id="affinity_designer_icon" d="M999.998,30.001c0,-16.556 -13.443,-30 -30,-30l-939.998,0c-16.556,0 -30,13.444 -30,30l0,940c0,16.556 13.444,29.999 30,29.999l939.998,0c16.557,0 30,-13.443 30,-29.999l0,-940Z" style="fill:#1b72be;"/><path id="affinity_designer_icon1" serif:id="affinity_designer_icon" d="M999.998,30.001c0,-16.556 -13.443,-30 -30,-30l-559.999,0l-409.999,710.141l0,259.859c0,16.556 13.444,29.999 30,29.999l939.998,0c16.557,0 30,-13.443 30,-29.999l0,-940Z" style="fill:#0568aa;"/><path d="M462.354,999.998l-69.741,0l-180.138,-362.156l351.038,-637.843l56.49,0l-367.498,636.529l209.847,363.47l0.002,0Zm188.919,0l-173.919,0l-204.935,-354.958l727.652,0l-0.069,66.275l-348.729,288.683Zm-172.863,-999.999l-58.407,0l-419.999,727.459l0,101.166l478.406,-828.625Zm101.454,631.958l-197.796,0c-23.088,0 -44.556,-12.078 -56.101,-32.069c-11.529,-19.969 -11.529,-44.652 0,-64.621l99.036,-171.536l154.861,268.226Zm420.138,0l-405.138,0l-162.362,-281.219l202.501,-350.739l73.372,0.046l-106.571,362.541l49.469,101.616l348.729,137.136l0,30.619Z" style="fill:#074f7f;"/><path d="M999.998,999.988l-507.646,0l-197.43,-341.961l705.076,0l0,341.961Zm-552.646,0l-447.348,0l0,-246.551l434.997,-753.444l169.999,0l-367.497,636.53l209.849,363.465Zm110.052,-380.955l-171.88,0c-19.187,0 -36.917,-10.068 -46.51,-26.689c-9.582,-16.595 -9.582,-37.107 0,-53.701c38.18,-66.133 85.987,-148.935 85.987,-148.935l132.403,229.325Zm442.594,0l-397.575,0l-154.922,-268.3l202.499,-350.74l349.998,0l0,619.04Z" style="fill:url(#_Radial2);"/><path d="M1023.2,1018.38l-520.231,0l-208.048,-360.35l727.918,0l0.361,360.35Zm-785.698,-381.854l220.467,381.854l-488.656,0l-1.637,-208.954l479.401,-830.348l169.999,0l-379.574,657.448Zm78.204,33.506l194.191,336.356l501.291,0l-0.332,-336.356l-695.15,0Zm138.299,-678.952l-474.304,821.52l1.518,193.788l455.966,0l-213.54,-369.862l372.646,-645.446l-142.286,0Zm103.398,627.956l-172.329,0l-0.225,-0.01l-0.448,0l-0.225,-0.009l-0.223,0l-0.224,-0.01l-0.223,-0.01l-0.224,-0.01l-0.224,-0.01l-0.222,-0.009l-0.224,-0.01l-0.223,-0.01l-0.222,-0.019l-0.223,-0.01l-0.222,-0.02l-0.222,-0.009l-0.222,-0.02l-0.222,-0.02l-0.221,-0.019l-0.222,-0.02l-0.221,-0.019l-0.221,-0.02l-0.221,-0.019l-0.221,-0.029l-0.22,-0.02l-0.22,-0.029l-0.221,-0.02l-0.22,-0.029l-0.219,-0.029l-0.219,-0.03l-0.22,-0.029l-0.219,-0.029l-0.218,-0.03l-0.219,-0.029l-0.219,-0.039l-0.218,-0.029l-0.217,-0.039l-0.218,-0.03l-0.218,-0.039l-0.218,-0.039l-0.216,-0.039l-0.217,-0.039l-0.216,-0.039l-0.217,-0.039l-0.216,-0.039l-0.216,-0.049l-0.215,-0.039l-0.215,-0.049l-0.216,-0.039l-0.215,-0.049l-0.214,-0.048l-0.215,-0.049l-0.213,-0.039l-0.214,-0.059l-0.214,-0.049l-0.213,-0.049l-0.213,-0.048l-0.213,-0.059l-0.212,-0.049l-0.212,-0.049l-0.212,-0.058l-0.211,-0.059l-0.211,-0.058l-0.211,-0.059l-0.211,-0.059l-0.211,-0.058l-0.21,-0.059l-0.21,-0.058l-0.209,-0.059l-0.209,-0.068l-0.209,-0.059l-0.209,-0.068l-0.208,-0.069l-0.208,-0.058l-0.208,-0.069l-0.207,-0.068l-0.207,-0.068l-0.207,-0.069l-0.206,-0.078l-0.206,-0.068l-0.206,-0.069l-0.205,-0.068l-0.205,-0.078l-0.206,-0.078l-0.204,-0.069l-0.204,-0.078l-0.203,-0.078l-0.204,-0.078l-0.203,-0.078l-0.202,-0.078l-0.202,-0.078l-0.203,-0.078l-0.201,-0.088l-0.201,-0.078l-0.201,-0.088l-0.2,-0.078l-0.2,-0.088l-0.201,-0.088l-0.199,-0.088l-0.199,-0.078l-0.198,-0.098l-0.199,-0.088l-0.198,-0.088l-0.197,-0.088l-0.197,-0.087l-0.197,-0.098l-0.196,-0.088l-0.196,-0.098l-0.196,-0.088l-0.195,-0.097l-0.194,-0.098l-0.194,-0.098l-0.195,-0.097l-0.193,-0.098l-0.194,-0.097l-0.192,-0.098l-0.192,-0.098l-0.193,-0.107l-0.191,-0.098l-0.191,-0.107l-0.19,-0.098l-0.19,-0.107l-0.19,-0.108l-0.189,-0.107l-0.19,-0.108l-0.188,-0.097l-0.188,-0.108l-0.187,-0.117l-0.188,-0.107l-0.186,-0.108l-0.186,-0.117l-0.186,-0.107l-0.185,-0.108l-0.185,-0.117l-0.185,-0.117l-0.184,-0.117l-0.183,-0.108l-0.183,-0.117l-0.182,-0.117l-0.182,-0.117l-0.182,-0.118l-0.181,-0.126l-0.181,-0.118l-0.18,-0.117l-0.179,-0.127l-0.18,-0.117l-0.179,-0.127l-0.177,-0.127l-0.178,-0.117l-0.178,-0.127l-0.177,-0.127l-0.175,-0.127l-0.176,-0.127l-0.176,-0.127l-0.174,-0.127l-0.175,-0.136l-0.173,-0.127l-0.173,-0.127l-0.173,-0.137l-0.172,-0.127l-0.172,-0.137l-0.171,-0.137l-0.171,-0.136l-0.17,-0.127l-0.17,-0.137l-0.169,-0.137l-0.167,-0.146l-0.168,-0.137l-0.168,-0.137l-0.166,-0.136l-0.167,-0.147l-0.165,-0.136l-0.166,-0.137l-0.165,-0.147l-0.164,-0.146l-0.164,-0.137l-0.163,-0.146l-0.162,-0.147l-0.162,-0.146l-0.161,-0.147l-0.16,-0.146l-0.16,-0.147l-0.161,-0.146l-0.159,-0.156l-0.158,-0.147l-0.157,-0.156l-0.158,-0.147l-0.157,-0.156l-0.156,-0.146l-0.155,-0.157l-0.155,-0.156l-0.155,-0.156l-0.153,-0.156l-0.153,-0.157l-0.153,-0.156l-0.152,-0.156l-0.151,-0.156l-0.151,-0.157l-0.15,-0.166l-0.15,-0.156l-0.148,-0.156l-0.148,-0.166l-0.148,-0.166l-0.147,-0.156l-0.146,-0.166l-0.146,-0.167l-0.145,-0.166l-0.144,-0.166l-0.145,-0.166l-0.143,-0.166l-0.142,-0.166l-0.143,-0.166l-0.14,-0.166l-0.141,-0.175l-0.141,-0.166l-0.138,-0.176l-0.139,-0.166l-0.139,-0.176l-0.136,-0.176l-0.137,-0.166l-0.137,-0.176l-0.135,-0.175l-0.134,-0.176l-0.134,-0.176l-0.134,-0.176l-0.133,-0.175l-0.132,-0.176l-0.13,-0.176l-0.131,-0.186l-0.13,-0.175l-0.13,-0.186l-0.128,-0.176l-0.128,-0.185l-0.128,-0.186l-0.126,-0.176l-0.126,-0.185l-0.125,-0.186l-0.124,-0.185l-0.124,-0.186l-0.123,-0.185l-0.122,-0.186l-0.122,-0.185l-0.12,-0.186l-0.12,-0.195l-0.12,-0.186l-0.118,-0.185l-0.119,-0.196l-0.117,-0.185l-0.116,-0.195l-0.116,-0.196l-0.115,-0.185l-0.115,-0.196l-0.113,-0.195l-0.112,-0.195l-0.113,-0.196l-0.111,-0.195l-0.11,-0.195l-0.11,-0.196l-0.108,-0.195l-0.107,-0.195l-0.107,-0.195l-0.106,-0.196l-0.105,-0.205l-0.104,-0.195l-0.103,-0.195l-0.102,-0.206l-0.102,-0.195l-0.101,-0.195l-0.099,-0.205l-0.099,-0.196l-0.098,-0.205l-0.097,-0.195l-0.096,-0.205l-0.096,-0.205l-0.094,-0.195l-0.093,-0.206l-0.093,-0.205l-0.092,-0.195l-0.09,-0.205l-0.091,-0.205l-0.089,-0.195l-0.088,-0.205l-0.088,-0.206l-0.086,-0.205l-0.086,-0.205l-0.085,-0.205l-0.084,-0.205l-0.083,-0.205l-0.082,-0.205l-0.081,-0.205l-0.08,-0.205l-0.08,-0.205l-0.078,-0.205l-0.078,-0.205l-0.077,-0.215l-0.076,-0.205l-0.075,-0.205l-0.074,-0.205l-0.073,-0.206l-0.073,-0.214l-0.072,-0.205l-0.07,-0.206l-0.07,-0.214l-0.069,-0.205l-0.068,-0.215l-0.067,-0.205l-0.067,-0.205l-0.065,-0.215l-0.065,-0.205l-0.063,-0.215l-0.063,-0.215l-0.062,-0.205l-0.061,-0.215l-0.06,-0.205l-0.06,-0.215l-0.058,-0.205l-0.057,-0.215l-0.057,-0.215l-0.055,-0.205l-0.056,-0.215l-0.054,-0.214l-0.053,-0.215l-0.052,-0.205l-0.052,-0.215l-0.05,-0.215l-0.05,-0.215l-0.048,-0.205l-0.048,-0.215l-0.047,-0.215l-0.046,-0.214l-0.046,-0.215l-0.044,-0.215l-0.044,-0.215l-0.042,-0.215l-0.042,-0.215l-0.041,-0.215l-0.04,-0.205l-0.039,-0.214l-0.038,-0.215l-0.037,-0.215l-0.036,-0.225l-0.036,-0.205l-0.035,-0.224l-0.034,-0.215l-0.033,-0.215l-0.032,-0.215l-0.03,-0.215l-0.032,-0.215l-0.029,-0.214l-0.028,-0.215l-0.028,-0.215l-0.027,-0.215l-0.025,-0.215l-0.026,-0.224l-0.024,-0.215l-0.023,-0.215l-0.022,-0.215l-0.022,-0.215l-0.02,-0.215l-0.021,-0.224l-0.018,-0.215l-0.018,-0.215l-0.017,-0.215l-0.017,-0.215l-0.015,-0.224l-0.014,-0.215l-0.014,-0.215l-0.013,-0.215l-0.011,-0.215l-0.012,-0.224l-0.01,-0.215l-0.009,-0.215l-0.008,-0.215l-0.008,-0.224l-0.006,-0.215l-0.006,-0.215l-0.005,-0.215l-0.004,-0.224l-0.003,-0.215l-0.003,-0.215l-0.001,-0.215l0,-0.439l0.001,-0.215l0.003,-0.215l0.003,-0.225l0.004,-0.215l0.005,-0.214l0.006,-0.215l0.006,-0.225l0.008,-0.215l0.008,-0.215l0.009,-0.214l0.01,-0.225l0.012,-0.215l0.011,-0.215l0.013,-0.215l0.014,-0.224l0.014,-0.215l0.015,-0.215l0.017,-0.215l0.017,-0.215l0.018,-0.214l0.018,-0.225l0.021,-0.215l0.02,-0.215l0.022,-0.215l0.022,-0.214l0.023,-0.225l0.024,-0.215l0.026,-0.215l0.025,-0.215l0.027,-0.214l0.028,-0.215l0.028,-0.215l0.029,-0.215l0.032,-0.224l0.03,-0.215l0.032,-0.215l0.033,-0.215l0.034,-0.215l0.035,-0.215l0.036,-0.215l0.036,-0.214l0.037,-0.215l0.038,-0.215l0.039,-0.215l0.04,-0.215l0.041,-0.215l0.042,-0.214l0.042,-0.215l0.044,-0.205l0.044,-0.215l0.046,-0.215l0.046,-0.215l0.047,-0.215l0.048,-0.215l0.048,-0.214l0.05,-0.206l0.05,-0.214l0.052,-0.215l0.052,-0.215l0.053,-0.205l0.054,-0.215l0.056,-0.215l0.055,-0.215l0.057,-0.205l0.057,-0.215l0.058,-0.214l0.06,-0.205l0.06,-0.215l0.061,-0.205l0.062,-0.215l0.063,-0.205l0.063,-0.215l0.065,-0.205l0.065,-0.215l0.067,-0.205l0.067,-0.215l0.068,-0.205l0.069,-0.215l0.07,-0.205l0.07,-0.205l0.072,-0.205l0.073,-0.215l0.073,-0.205l0.074,-0.205l0.075,-0.205l0.076,-0.215l0.077,-0.205l0.078,-0.205l0.078,-0.205l0.08,-0.205l0.08,-0.205l0.081,-0.206l0.082,-0.205l0.083,-0.205l0.084,-0.205l0.085,-0.205l0.086,-0.205l0.086,-0.205l0.088,-0.205l0.088,-0.205l0.089,-0.205l0.091,-0.196l0.09,-0.205l0.092,-0.205l0.093,-0.195l0.093,-0.205l0.094,-0.205l0.096,-0.195l0.096,-0.206l0.097,-0.205l0.098,-0.195l0.099,-0.195l0.099,-0.205l0.101,-0.196l0.102,-0.205l0.102,-0.195l0.103,-0.195l0.104,-0.196l0.105,-0.205l0.106,-0.195l0.107,-0.195l0.107,-0.196l0.108,-0.195l0.11,-0.195l0.11,-0.205l0.111,-0.186l0.113,-0.195l85.987,-148.935l132.403,229.325Zm465.192,0l-420.192,0l-154.903,-268.3l214.576,-371.658l356.173,0l4.346,639.958Zm-673.183,-74.404l-0.095,0.166l-0.087,0.147l-0.084,0.146l-0.086,0.156l-0.083,0.157l-0.085,0.156l-0.082,0.146l-0.083,0.157l-0.082,0.156l-0.08,0.146l-0.08,0.157l-0.08,0.156l-0.08,0.156l-0.076,0.147l-0.078,0.156l-0.078,0.166l-0.075,0.146l-0.075,0.157l-0.075,0.156l-0.073,0.156l-0.074,0.156l-0.074,0.157l-0.072,0.166l-0.07,0.146l-0.07,0.156l-0.071,0.166l-0.069,0.157l-0.068,0.156l-0.068,0.156l-0.067,0.156l-0.067,0.166l-0.066,0.157l-0.065,0.156l-0.064,0.156l-0.064,0.166l-0.064,0.156l-0.061,0.157l-0.062,0.166l-0.061,0.156l-0.061,0.166l-0.06,0.156l-0.058,0.156l-0.058,0.166l-0.058,0.166l-0.057,0.157l-0.056,0.156l-0.056,0.166l-0.055,0.166l-0.054,0.156l-0.053,0.166l-0.053,0.156l-0.052,0.166l-0.052,0.166l-0.05,0.157l-0.051,0.166l-0.049,0.166l-0.049,0.156l-0.049,0.166l-0.047,0.166l-0.046,0.156l-0.046,0.176l-0.045,0.156l-0.045,0.166l-0.044,0.166l-0.043,0.166l-0.043,0.166l-0.042,0.157l-0.041,0.166l-0.041,0.166l-0.04,0.166l-0.038,0.166l-0.039,0.166l-0.038,0.166l-0.038,0.166l-0.037,0.166l-0.035,0.166l-0.035,0.166l-0.034,0.166l-0.034,0.166l-0.034,0.166l-0.031,0.166l-0.032,0.166l-0.031,0.166l-0.031,0.166l-0.029,0.166l-0.029,0.166l-0.028,0.166l-0.029,0.166l-0.026,0.176l-0.026,0.156l-0.026,0.176l-0.025,0.166l-0.024,0.166l-0.024,0.166l-0.023,0.166l-0.022,0.166l-0.022,0.166l-0.02,0.176l-0.021,0.166l-0.018,0.166l-0.02,0.166l-0.017,0.175l-0.018,0.166l-0.016,0.166l-0.017,0.166l-0.015,0.176l-0.014,0.166l-0.015,0.166l-0.013,0.166l-0.012,0.166l-0.012,0.176l-0.012,0.166l-0.01,0.166l-0.01,0.176l-0.009,0.166l-0.009,0.166l-0.008,0.166l-0.006,0.176l-0.007,0.166l-0.006,0.166l-0.005,0.166l-0.005,0.176l-0.004,0.166l-0.003,0.166l-0.002,0.166l-0.002,0.175l-0.001,0.166l0,0.342l0.001,0.166l0.004,0.332l0.003,0.176l0.004,0.166l0.005,0.166l0.005,0.176l0.006,0.166l0.007,0.166l0.006,0.176l0.008,0.166l0.018,0.332l0.01,0.175l0.01,0.166l0.024,0.332l0.012,0.176l0.013,0.166l0.029,0.332l0.015,0.176l0.033,0.332l0.035,0.332l0.019,0.176l0.019,0.166l0.041,0.332l0.022,0.166l0.045,0.332l0.024,0.176l0.024,0.166l0.051,0.332l0.052,0.332l0.029,0.176l0.028,0.166l0.058,0.332l0.093,0.498l0.066,0.332l0.068,0.332l0.035,0.166l0.072,0.332l0.114,0.498l0.039,0.166l0.04,0.156l0.041,0.176l0.042,0.156l0.041,0.166l0.086,0.332l0.044,0.166l0.045,0.166l0.045,0.156l0.046,0.167l0.094,0.332l0.097,0.322l0.049,0.166l0.05,0.156l0.103,0.332l0.052,0.156l0.106,0.332l0.054,0.157l0.055,0.166l0.055,0.156l0.057,0.166l0.057,0.156l0.057,0.166l0.058,0.156l0.059,0.166l0.06,0.157l0.061,0.166l0.123,0.312l0.062,0.166l0.063,0.156l0.063,0.157l0.065,0.166l0.065,0.156l0.199,0.469l0.069,0.166l0.068,0.156l0.069,0.156l0.071,0.156l0.07,0.157l0.071,0.166l0.145,0.312l0.073,0.147l0.074,0.156l0.075,0.166l0.075,0.146l0.077,0.157l0.076,0.156l0.077,0.156l0.078,0.156l0.079,0.157l0.079,0.146l0.243,0.469l0.083,0.156l0.082,0.147l0.084,0.156l0.085,0.156l0.085,0.147l0.084,0.156l0.087,0.146l0.086,0.157l0.089,0.146l0.09,0.156l0.088,0.147l0.087,0.146l0.09,0.147l0.091,0.156l0.091,0.147l0.09,0.146l0.093,0.147l0.094,0.146l0.092,0.146l0.094,0.147l0.095,0.146l0.093,0.137l0.191,0.293l0.096,0.137l0.099,0.146l0.096,0.147l0.097,0.137l0.099,0.146l0.2,0.273l0.101,0.147l0.099,0.137l0.203,0.273l0.1,0.137l0.103,0.137l0.106,0.146l0.102,0.127l0.103,0.137l0.214,0.273l0.104,0.127l0.103,0.137l0.108,0.137l0.111,0.136l0.107,0.127l0.105,0.127l0.11,0.137l0.111,0.127l0.11,0.137l0.109,0.126l0.112,0.127l0.109,0.127l0.112,0.127l0.115,0.137l0.11,0.117l0.114,0.127l0.113,0.127l0.116,0.127l0.115,0.127l0.114,0.127l0.115,0.117l0.117,0.127l0.118,0.127l0.115,0.117l0.116,0.117l0.12,0.127l0.121,0.127l0.234,0.235l0.122,0.117l0.119,0.117l0.12,0.117l0.122,0.118l0.124,0.126l0.122,0.108l0.121,0.117l0.126,0.117l0.122,0.117l0.122,0.108l0.124,0.117l0.128,0.117l0.127,0.117l0.12,0.108l0.126,0.107l0.129,0.117l0.13,0.108l0.126,0.117l0.126,0.107l0.129,0.108l0.127,0.107l0.133,0.108l0.128,0.107l0.129,0.108l0.131,0.107l0.13,0.107l0.131,0.098l0.134,0.108l0.132,0.107l0.127,0.098l0.137,0.107l0.138,0.107l0.129,0.098l0.134,0.098l0.138,0.107l0.131,0.098l0.135,0.097l0.139,0.108l0.137,0.098l0.136,0.097l0.136,0.098l0.134,0.088l0.138,0.097l0.141,0.098l0.139,0.098l0.279,0.195l0.135,0.088l0.141,0.088l0.145,0.097l0.136,0.088l0.142,0.098l0.147,0.088l0.275,0.176l0.148,0.097l0.144,0.088l0.14,0.088l0.144,0.078l0.582,0.352l0.147,0.088l0.284,0.156l0.153,0.088l0.148,0.088l0.144,0.078l0.149,0.078l0.144,0.078l0.15,0.078l0.149,0.088l0.302,0.156l0.147,0.069l0.146,0.078l0.305,0.156l0.147,0.068l0.307,0.157l0.148,0.068l0.156,0.078l0.154,0.069l0.149,0.068l0.151,0.068l0.155,0.078l0.157,0.069l0.152,0.068l0.156,0.068l0.151,0.069l0.154,0.058l0.158,0.069l0.157,0.068l0.153,0.069l0.154,0.058l0.32,0.137l0.154,0.058l0.31,0.118l0.161,0.068l0.312,0.117l0.164,0.059l0.156,0.058l0.163,0.059l0.157,0.059l0.157,0.048l0.165,0.059l0.159,0.059l0.158,0.048l0.166,0.059l0.159,0.049l0.159,0.058l0.32,0.098l0.162,0.049l0.167,0.058l0.322,0.098l0.168,0.049l0.156,0.039l0.162,0.049l0.169,0.049l0.163,0.048l0.163,0.04l0.17,0.048l0.164,0.039l0.158,0.049l0.165,0.039l0.171,0.039l0.165,0.049l0.159,0.039l0.166,0.039l0.172,0.039l0.166,0.039l0.166,0.03l0.167,0.039l0.161,0.039l0.173,0.039l0.168,0.029l0.162,0.039l0.174,0.03l0.168,0.039l0.162,0.029l0.169,0.029l0.17,0.03l0.169,0.029l0.176,0.029l0.328,0.059l0.177,0.029l0.17,0.029l0.165,0.02l0.172,0.029l0.171,0.029l0.172,0.02l0.171,0.029l0.166,0.02l0.172,0.019l0.346,0.039l0.173,0.03l0.167,0.019l0.167,0.01l0.174,0.02l0.181,0.019l0.167,0.02l0.168,0.009l0.182,0.02l0.169,0.01l0.168,0.019l0.182,0.01l0.169,0.01l0.169,0.019l0.177,0.01l0.176,0.01l0.177,0.01l0.17,0.009l0.17,0.01l0.177,0l0.178,0.01l0.171,0.01l0.171,0l0.178,0.009l0.35,0l0.172,0.01l151.626,0l-111.619,-193.329l-75.588,130.927Zm319.592,-553.552l-207.647,359.656l147.974,256.298l401.184,0l-4.18,-615.954l-337.331,0Z" style="fill:url(#_Linear3);"/></g></g></g><defs><radialGradient id="_Radial2" cx="0" cy="0" r="1" gradientUnits="userSpaceOnUse" gradientTransform="matrix(1187.93,0,0,1187.93,764.335,-187.943)"><stop offset="0" style="stop-color:#6be1fb;stop-opacity:1"/><stop offset="1" style="stop-color:#38bdfa;stop-opacity:1"/></radialGradient><linearGradient id="_Linear3" x1="0" y1="0" x2="1" y2="0" gradientUnits="userSpaceOnUse" gradientTransform="matrix(-0.0174532,-999.995,999.995,-0.0174532,1.76836e+06,969.174)"><stop offset="0" style="stop-color:#4ac5fa;stop-opacity:1"/><stop offset="1" style="stop-color:#97e8fc;stop-opacity:1"/></linearGradient></defs></svg>