<?xml version="1.0" encoding="UTF-8" standalone="no"?><!DOCTYPE svg PUBLIC "-//W3C//DTD SVG 1.1//EN" "http://www.w3.org/Graphics/SVG/1.1/DTD/svg11.dtd"><svg width="100%" height="100%" viewBox="0 0 1000 1000" version="1.1" xmlns="http://www.w3.org/2000/svg" xmlns:xlink="http://www.w3.org/1999/xlink" xml:space="preserve" xmlns:serif="http://www.serif.com/" style="fill-rule:evenodd;clip-rule:evenodd;stroke-linejoin:round;stroke-miterlimit:2;"><g id="affinity_publisher_icon-" serif:id="affinity_publisher_icon "><path d="M1000,30.001c0,-16.557 -13.444,-30 -30,-30l-940.004,0c-16.556,0 -30,13.443 -30,30l0,939.999c0,16.557 13.444,30 30,30l940.004,0c16.556,0 30,-13.443 30,-30l0,-939.999Z" style="fill:none;"/><g><clipPath id="_clip1"><path d="M1000,30.001c0,-16.557 -13.444,-30 -30,-30l-940.004,0c-16.556,0 -30,13.443 -30,30l0,939.999c0,16.557 13.444,30 30,30l940.004,0c16.556,0 30,-13.443 30,-30l0,-939.999Z"/></clipPath><g clip-path="url(#_clip1)"><path d="M1000,30.001c0,-16.557 -13.444,-30 -30,-30l-940.004,0c-16.556,0 -30,13.443 -30,30l0,939.999c0,16.557 13.444,30 30,30l940.004,0c16.556,0 30,-13.443 30,-30l0,-939.999Z" style="fill:#c9284d;"/><path d="M1000,30.001c0,-16.557 -13.444,-30 -30,-30l-560.002,0l-410.002,710.14l0,259.859c0,16.557 13.444,30 30,30l940.004,0c16.556,0 30,-13.443 30,-30l0,-939.999Z" style="fill:#bd163d;"/><path d="M462.351,999.999l-462.352,0l0.004,-272.539l152.501,-264.136l309.847,536.675Zm215.001,0l-200.001,0c-97.766,-169.117 -193.069,-333.713 -290.441,-503.056c-16.238,-28.499 -16.544,-64.454 0.175,-93.558l72.922,-126.257l417.345,722.871Zm215,0l-200,0l-424.845,-735.861l99.997,-173.205l524.848,909.066Zm15,0l-532.348,-922.057l45.001,-77.942l109.996,0l470.002,813.544l0,186.455l-92.651,0Zm92.651,-999.999l0,788.082l-455.002,-788.082l455.002,0Z" style="fill:#8d102d;"/><path d="M152.5,489.305l294.851,510.695l-447.352,0l0,-246.558l152.501,-264.137Zm847.503,510.695l-77.651,0l-532.352,-922.057l45.001,-77.942l80,0l485.002,840.044l0,159.955Zm-122.651,0l-170,0l-422.352,-740.191l82.5,-142.895l509.852,883.086Zm-215.001,0l-170,0c0,0 -220.22,-381.564 -293.998,-509.218c-14.468,-25.032 -14.472,-55.883 -0.012,-80.919c26.677,-46.188 61.663,-106.763 61.663,-106.763l402.347,696.9Zm-102.35,-999.999l440.002,0l0,762.101l-440.002,-762.101Z" style="fill:url(#_Radial2);"/><path d="M897.321,1034.59l-170.096,0.24l-442.225,-775.021l82.5,-142.895l529.821,917.676Zm-215.156,-0.27l-170.39,-0.68l-10.441,-18.09l-28.156,-48.778l-41.118,-71.235l-23.935,-41.464l-25.395,-43.99l-26.258,-45.486l-26.529,-45.953l-26.205,-45.389l-25.288,-43.797l-23.776,-41.176l-11.136,-19.283l-10.535,-18.24l-9.861,-17.071l-9.111,-15.773l-8.288,-14.344l-7.39,-12.789l-0.169,-0.294l-0.167,-0.294l-0.167,-0.294l-0.165,-0.296l-0.163,-0.295l-0.162,-0.297l-0.161,-0.296l-0.16,-0.297l-0.158,-0.298l-0.157,-0.298l-0.156,-0.299l-0.154,-0.299l-0.153,-0.3l-0.152,-0.3l-0.15,-0.301l-0.149,-0.301l-0.148,-0.301l-0.146,-0.302l-0.145,-0.303l-0.144,-0.303l-0.142,-0.303l-0.142,-0.304l-0.139,-0.304l-0.139,-0.305l-0.137,-0.305l-0.136,-0.306l-0.134,-0.306l-0.133,-0.306l-0.132,-0.307l-0.131,-0.307l-0.129,-0.308l-0.127,-0.308l-0.127,-0.309l-0.125,-0.308l-0.124,-0.31l-0.123,-0.309l-0.121,-0.31l-0.12,-0.311l-0.118,-0.31l-0.117,-0.312l-0.116,-0.311l-0.115,-0.312l-0.113,-0.312l-0.112,-0.313l-0.111,-0.313l-0.109,-0.313l-0.108,-0.314l-0.107,-0.314l-0.105,-0.314l-0.104,-0.314l-0.103,-0.315l-0.101,-0.316l-0.1,-0.315l-0.099,-0.316l-0.097,-0.316l-0.096,-0.317l-0.095,-0.317l-0.093,-0.317l-0.092,-0.317l-0.091,-0.318l-0.09,-0.318l-0.088,-0.318l-0.087,-0.318l-0.085,-0.319l-0.084,-0.319l-0.083,-0.32l-0.081,-0.319l-0.081,-0.32l-0.078,-0.32l-0.078,-0.32l-0.076,-0.321l-0.075,-0.321l-0.074,-0.321l-0.072,-0.321l-0.071,-0.322l-0.069,-0.321l-0.068,-0.322l-0.067,-0.322l-0.066,-0.323l-0.064,-0.322l-0.063,-0.323l-0.062,-0.323l-0.06,-0.323l-0.059,-0.323l-0.058,-0.324l-0.056,-0.324l-0.055,-0.323l-0.054,-0.324l-0.052,-0.325l-0.051,-0.324l-0.05,-0.325l-0.048,-0.324l-0.047,-0.325l-0.046,-0.325l-0.044,-0.325l-0.044,-0.325l-0.041,-0.326l-0.041,-0.325l-0.039,-0.326l-0.038,-0.326l-0.036,-0.326l-0.035,-0.326l-0.034,-0.326l-0.033,-0.326l-0.031,-0.326l-0.03,-0.327l-0.028,-0.326l-0.027,-0.327l-0.026,-0.326l-0.025,-0.327l-0.023,-0.327l-0.022,-0.327l-0.02,-0.327l-0.02,-0.327l-0.017,-0.327l-0.017,-0.327l-0.015,-0.327l-0.014,-0.327l-0.013,-0.327l-0.011,-0.328l-0.01,-0.327l-0.009,-0.327l-0.007,-0.328l-0.006,-0.327l-0.005,-0.328l-0.003,-0.327l-0.002,-0.328l-0.001,-0.327l0.001,-0.327l0.002,-0.328l0.003,-0.327l0.004,-0.328l0.006,-0.327l0.008,-0.328l0.008,-0.327l0.01,-0.327l0.011,-0.328l0.013,-0.327l0.014,-0.327l0.015,-0.327l0.016,-0.327l0.018,-0.327l0.019,-0.327l0.021,-0.327l0.022,-0.327l0.023,-0.327l0.024,-0.327l0.026,-0.327l0.027,-0.326l0.028,-0.327l0.03,-0.326l0.031,-0.326l0.033,-0.327l0.033,-0.326l0.035,-0.326l0.037,-0.325l0.037,-0.326l0.039,-0.326l0.041,-0.325l0.041,-0.326l0.043,-0.325l0.045,-0.325l0.045,-0.325l0.047,-0.325l0.049,-0.325l0.049,-0.324l0.051,-0.325l0.052,-0.324l0.054,-0.324l0.055,-0.324l0.056,-0.323l0.058,-0.324l0.059,-0.323l0.06,-0.323l0.061,-0.323l0.063,-0.323l0.064,-0.323l0.066,-0.322l0.067,-0.322l0.068,-0.322l0.069,-0.322l0.071,-0.321l0.072,-0.322l0.074,-0.321l0.075,-0.321l0.076,-0.32l0.077,-0.321l0.079,-0.32l0.08,-0.319l0.081,-0.32l0.083,-0.319l0.084,-0.319l0.085,-0.319l0.087,-0.319l0.088,-0.318l0.089,-0.318l0.091,-0.318l0.092,-0.317l0.093,-0.317l0.095,-0.317l0.096,-0.317l0.097,-0.316l0.099,-0.316l0.1,-0.315l0.101,-0.316l0.103,-0.315l0.104,-0.314l0.105,-0.315l0.106,-0.314l0.108,-0.313l0.109,-0.314l0.111,-0.313l0.112,-0.312l0.113,-0.312l0.114,-0.312l0.116,-0.312l0.117,-0.311l0.119,-0.311l0.12,-0.31l0.121,-0.31l0.122,-0.31l0.124,-0.309l0.125,-0.309l0.127,-0.309l0.127,-0.308l0.129,-0.307l0.131,-0.308l0.131,-0.307l0.133,-0.306l0.135,-0.306l0.135,-0.306l0.137,-0.305l0.139,-0.305l0.139,-0.304l0.141,-0.304l0.143,-0.303l0.143,-0.303l0.145,-0.303l0.147,-0.302l0.147,-0.301l0.149,-0.302l0.15,-0.3l0.152,-0.3l0.153,-0.3l0.154,-0.299l0.156,-0.299l0.157,-0.298l0.158,-0.298l0.159,-0.297l0.161,-0.297l0.162,-0.296l0.164,-0.296l0.165,-0.295l0.166,-0.295l0.167,-0.294l0.169,-0.294l61.663,-106.763l422.161,731.22Zm-215.45,-0.78l-502.445,-1.19l10.973,-236.029l177.257,-307.016l314.215,544.235Zm555.808,-154.493l4.22,153.303l-85.322,0.68l-551.421,-955.087l66.64,-115.422l36.712,-0.017l529.171,916.543Zm-723.687,-619.203l435.352,762.976l142.365,-0.2l-509.053,-881.706l-68.664,118.93Zm-90.096,156.008l-0.151,0.262l-0.143,0.251l-0.14,0.249l-0.143,0.256l-0.139,0.251l-0.137,0.251l-0.137,0.252l-0.138,0.257l-0.135,0.254l-0.132,0.251l-0.132,0.255l-0.131,0.254l-0.13,0.255l-0.131,0.259l-0.128,0.256l-0.125,0.252l-0.127,0.261l-0.125,0.257l-0.123,0.257l-0.122,0.257l-0.121,0.259l-0.121,0.261l-0.117,0.254l-0.118,0.26l-0.118,0.262l-0.117,0.263l-0.113,0.259l-0.113,0.26l-0.112,0.26l-0.111,0.262l-0.111,0.264l-0.108,0.261l-0.108,0.265l-0.106,0.261l-0.105,0.263l-0.105,0.265l-0.103,0.262l-0.102,0.267l-0.102,0.265l-0.099,0.264l-0.098,0.264l-0.097,0.263l-0.096,0.267l-0.096,0.268l-0.094,0.265l-0.093,0.269l-0.093,0.268l-0.09,0.265l-0.089,0.268l-0.089,0.269l-0.087,0.267l-0.086,0.268l-0.086,0.27l-0.083,0.267l-0.083,0.27l-0.082,0.27l-0.081,0.27l-0.079,0.271l-0.078,0.267l-0.077,0.272l-0.077,0.271l-0.074,0.27l-0.075,0.273l-0.072,0.271l-0.071,0.27l-0.071,0.275l-0.07,0.272l-0.067,0.27l-0.067,0.272l-0.066,0.273l-0.065,0.274l-0.064,0.274l-0.063,0.273l-0.061,0.272l-0.06,0.274l-0.059,0.276l-0.059,0.274l-0.056,0.273l-0.056,0.276l-0.055,0.274l-0.053,0.273l-0.052,0.276l-0.052,0.276l-0.05,0.274l-0.049,0.278l-0.048,0.274l-0.047,0.275l-0.046,0.279l-0.044,0.273l-0.043,0.277l-0.043,0.277l-0.04,0.274l-0.04,0.279l-0.04,0.277l-0.037,0.277l-0.037,0.276l-0.035,0.277l-0.035,0.278l-0.033,0.277l-0.032,0.278l-0.031,0.277l-0.03,0.279l-0.028,0.276l-0.028,0.277l-0.027,0.28l-0.025,0.279l-0.024,0.277l-0.023,0.278l-0.022,0.276l-0.021,0.279l-0.02,0.281l-0.018,0.277l-0.018,0.278l-0.016,0.279l-0.015,0.278l-0.014,0.279l-0.013,0.279l-0.012,0.28l-0.011,0.278l-0.009,0.277l-0.009,0.28l-0.007,0.279l-0.006,0.28l-0.005,0.278l-0.004,0.279l-0.003,0.278l-0.001,0.278l-0.001,0.281l0.002,0.556l0.003,0.281l0.004,0.278l0.005,0.278l0.007,0.279l0.007,0.28l0.008,0.279l0.01,0.278l0.011,0.278l0.012,0.28l0.013,0.279l0.014,0.277l0.015,0.279l0.017,0.28l0.017,0.277l0.019,0.279l0.02,0.279l0.02,0.278l0.022,0.277l0.024,0.278l0.024,0.279l0.025,0.279l0.027,0.278l0.027,0.276l0.029,0.278l0.03,0.278l0.031,0.279l0.032,0.276l0.068,0.554l0.036,0.279l0.037,0.277l0.037,0.275l0.039,0.277l0.04,0.276l0.042,0.278l0.042,0.277l0.043,0.275l0.045,0.276l0.092,0.552l0.049,0.277l0.049,0.276l0.049,0.272l0.052,0.276l0.053,0.277l0.053,0.273l0.055,0.275l0.056,0.275l0.057,0.273l0.058,0.277l0.059,0.272l0.06,0.273l0.062,0.274l0.062,0.272l0.065,0.276l0.064,0.273l0.066,0.271l0.067,0.272l0.069,0.274l0.069,0.273l0.07,0.27l0.072,0.272l0.073,0.271l0.074,0.271l0.075,0.272l0.076,0.271l0.077,0.27l0.078,0.269l0.08,0.271l0.081,0.269l0.082,0.271l0.083,0.27l0.083,0.267l0.085,0.268l0.087,0.27l0.087,0.267l0.089,0.269l0.09,0.268l0.09,0.265l0.093,0.269l0.093,0.268l0.093,0.264l0.095,0.266l0.097,0.266l0.098,0.267l0.098,0.264l0.1,0.266l0.101,0.263l0.102,0.263l0.104,0.266l0.104,0.265l0.105,0.262l0.106,0.262l0.109,0.265l0.218,0.522l0.112,0.264l0.112,0.26l0.112,0.259l0.117,0.264l0.115,0.26l0.116,0.259l0.117,0.258l0.119,0.258l0.12,0.258l0.123,0.262l0.122,0.258l0.123,0.256l0.125,0.257l0.125,0.256l0.129,0.26l0.128,0.257l0.127,0.252l0.13,0.254l0.133,0.258l0.133,0.255l0.132,0.251l0.135,0.254l0.138,0.257l0.135,0.249l0.278,0.504l0.141,0.253l0.142,0.252l0.294,0.514l7.383,12.776l8.289,14.346l9.111,15.773l9.861,17.072l10.535,18.241l11.136,19.282l23.777,41.176l25.288,43.798l26.206,45.39l26.529,45.952l26.259,45.486l25.393,43.99l23.936,41.465l41.118,71.236l28.156,48.776l6.993,12.12l142.612,0.57l-401.33,-695.143l-51.262,88.755Zm-221.645,383.941l-10.255,220.587l469.062,1.11l-293.402,-508.185l-165.405,286.488Zm476.475,-825.275l-59.713,103.425l544.46,943.027l66.096,-0.53l-3.8,-138.025l-524.187,-907.907l-22.856,0.01Zm565.683,838.246l-490.847,-850.167l483.947,-1.308l6.9,851.475Zm-470.095,-838.223l457.725,792.801l-6.43,-794.021l-451.295,1.22Z" style="fill:url(#_Linear3);"/></g></g></g><defs><radialGradient id="_Radial2" cx="0" cy="0" r="1" gradientUnits="userSpaceOnUse" gradientTransform="matrix(1187.94,0,0,1187.94,764.246,-187.94)"><stop offset="0" style="stop-color:#ffae71;stop-opacity:1"/><stop offset="1" style="stop-color:#ff9350;stop-opacity:1"/></radialGradient><linearGradient id="_Linear3" x1="0" y1="0" x2="1" y2="0" gradientUnits="userSpaceOnUse" gradientTransform="matrix(6.12323e-14,999.999,-999.999,6.12323e-14,1892.51,0.001)"><stop offset="0" style="stop-color:#ffbc8f;stop-opacity:1"/><stop offset="1" style="stop-color:#ffa16b;stop-opacity:1"/></linearGradient></defs></svg>