<?xml version="1.0" encoding="UTF-8" standalone="no"?><!DOCTYPE svg PUBLIC "-//W3C//DTD SVG 1.1//EN" "http://www.w3.org/Graphics/SVG/1.1/DTD/svg11.dtd"><svg width="100%" height="100%" viewBox="0 0 256 289" version="1.1" xmlns="http://www.w3.org/2000/svg" xmlns:xlink="http://www.w3.org/1999/xlink" xml:space="preserve" xmlns:serif="http://www.serif.com/" style="fill-rule:evenodd;clip-rule:evenodd;stroke-linejoin:round;stroke-miterlimit:2;"><g><path d="M87.31,200.772c-15.306,-14.406 -24.31,-34.213 -24.31,-56.722c0,-22.509 9.004,-42.316 23.409,-56.722c12.605,-12.604 12.605,-32.412 0,-45.017c-12.605,-12.605 -32.412,-12.605 -45.017,0c-25.21,26.11 -41.416,62.124 -41.416,101.739c0,39.615 16.206,75.629 42.316,101.739c12.605,12.605 32.413,12.605 45.018,0c11.704,-12.605 11.704,-32.413 0,-45.017Z" style="fill:#fae501;fill-rule:nonzero;"/><path d="M87.31,87.328c14.405,-15.305 34.213,-24.309 56.721,-24.309c22.509,0 42.316,9.004 56.722,23.409c12.605,12.605 32.412,12.605 45.017,0c12.605,-12.605 12.605,-32.412 0,-45.017c-26.11,-25.21 -62.124,-41.416 -101.739,-41.416c-39.615,0 -75.629,16.206 -101.739,42.316c-12.604,12.605 -12.604,32.413 0,45.017c12.605,11.705 32.413,11.705 45.018,0Z" style="fill:#4fb5e1;fill-rule:nonzero;"/><path d="M200.753,200.772c-14.406,15.305 -34.213,24.309 -56.722,24.309c-22.508,0 -42.316,-9.004 -56.721,-23.409c-12.605,-12.605 -32.413,-12.605 -45.018,0c-12.604,12.605 -12.604,32.412 0,45.017c26.11,25.21 62.124,41.416 101.739,41.416c39.615,0 75.629,-16.206 101.739,-42.316c12.605,-12.605 12.605,-32.413 0,-45.017c-12.605,-11.705 -32.412,-11.705 -45.017,0Z" style="fill:#f05751;fill-rule:nonzero;"/><circle cx="64.801" cy="64.82" r="31.512" style="fill:#0681b6;"/><circle cx="64.801" cy="223.28" r="31.512" style="fill:#cd4739;"/></g></svg>