<?xml version="1.0" encoding="UTF-8" standalone="no"?><!DOCTYPE svg PUBLIC "-//W3C//DTD SVG 1.1//EN" "http://www.w3.org/Graphics/SVG/1.1/DTD/svg11.dtd"><svg width="100%" height="100%" viewBox="0 0 160 240" version="1.1" xmlns="http://www.w3.org/2000/svg" xmlns:xlink="http://www.w3.org/1999/xlink" xml:space="preserve" xmlns:serif="http://www.serif.com/" style="fill-rule:evenodd;clip-rule:evenodd;stroke-linejoin:round;stroke-miterlimit:2;"><g><path id="path0_fill" d="M40,240c22.1,0 40,-17.9 40,-40l0,-40l-40,0c-22.1,0 -40,17.9 -40,40c0,22.1 17.9,40 40,40Z" style="fill:#0acf83;fill-rule:nonzero;"/><path id="path1_fill" d="M0,120c0,-22.1 17.9,-40 40,-40l40,0l0,80l-40,0c-22.1,0 -40,-17.9 -40,-40Z" style="fill:#a259ff;fill-rule:nonzero;"/><path id="path1_fill_1_" d="M0,40c0,-22.1 17.9,-40 40,-40l40,0l0,80l-40,0c-22.1,0 -40,-17.9 -40,-40Z" style="fill:#f24e1e;fill-rule:nonzero;"/><path id="path2_fill" d="M80,0l40,0c22.1,0 40,17.9 40,40c0,22.1 -17.9,40 -40,40l-40,0l0,-80Z" style="fill:#ff7262;fill-rule:nonzero;"/><path id="path3_fill" d="M160,120c0,22.1 -17.9,40 -40,40c-22.1,0 -40,-17.9 -40,-40c0,-22.1 17.9,-40 40,-40c22.1,0 40,17.9 40,40Z" style="fill:#1abcfe;fill-rule:nonzero;"/></g></svg>