<svg width="216" height="216" viewBox="0 0 216 216" fill="none" xmlns="http://www.w3.org/2000/svg">
<g clip-path="url(#clip0)">
<path d="M192.689 107.906H138.736V123.321H175.733C170.337 146.443 153.381 165.712 131.029 173.42L42.3919 84.7829C51.641 57.8065 77.8467 38.5376 107.906 38.5376C131.029 38.5376 151.839 50.099 164.942 67.8263L176.503 57.8065C161.088 36.9961 136.424 23.1226 107.906 23.1226C67.8268 23.1226 33.9136 51.6405 25.4353 89.4074L127.175 191.147C164.171 181.898 192.689 147.985 192.689 107.906ZM23.123 108.676C23.123 130.257 31.6014 151.068 47.7872 167.254C63.9731 183.439 85.5542 191.918 106.365 191.918L23.123 108.676Z" fill="white"/>
<path d="M107.906 0C48.5575 0 0 48.5575 0 107.906C0 167.254 48.5575 215.811 107.906 215.811C167.254 215.811 215.811 167.254 215.811 107.906C215.811 48.5575 167.254 0 107.906 0ZM47.7868 168.024C31.6009 151.839 23.1226 130.257 23.1226 109.447L107.135 192.689C85.5538 191.918 63.9726 184.21 47.7868 168.024ZM126.404 190.376L25.4349 89.4075C33.9132 51.6405 67.8264 23.1226 107.906 23.1226C136.424 23.1226 161.088 36.9962 176.503 57.8066L164.942 67.8264C151.839 50.099 131.028 38.5377 107.906 38.5377C77.8462 38.5377 52.4113 57.8066 42.3915 84.783L131.028 173.42C153.38 165.712 170.337 146.443 175.732 123.321H138.736V107.906H192.689C192.689 147.985 164.171 181.898 126.404 190.376Z" fill="#663399"/>
</g>
<defs>
<clipPath id="clip0">
<rect width="215.811" height="215.811" fill="white"/>
</clipPath>
</defs>
</svg>
