<?xml version="1.0" encoding="UTF-8" standalone="no"?><!DOCTYPE svg PUBLIC "-//W3C//DTD SVG 1.1//EN" "http://www.w3.org/Graphics/SVG/1.1/DTD/svg11.dtd"><svg width="100%" height="100%" viewBox="0 0 252 153" version="1.1" xmlns="http://www.w3.org/2000/svg" xmlns:xlink="http://www.w3.org/1999/xlink" xml:space="preserve" xmlns:serif="http://www.serif.com/" style="fill-rule:evenodd;clip-rule:evenodd;stroke-linejoin:round;stroke-miterlimit:2;"><path d="M67.125,78.64c-0.17,0.26 -0.5,1.08 -0.95,2.45c-0.46,1.38 -1.02,3.1 -1.68,5.2c-0.66,2.07 -1.38,4.4 -2.14,6.97l-2.37,7.88c-0.9,2.68 -1.6,5.3 -2.4,7.88l-2,6.98l-1.5,5.22l-0.7,2.5c-0.3,0.83 -0.6,1.75 -1.1,2.77c-0.5,1 -1.1,1.97 -1.7,2.88c-0.7,0.9 -1.4,1.67 -2.2,2.27c-0.8,0.6 -1.6,0.9 -2.5,0.9c-1.4,0 -2.4,-0.48 -3.1,-1.4c-0.7,-0.95 -1,-2.66 -1,-5.16l0,-2.26c0,-0.83 0.4,-2.4 1,-4.68c0.6,-2.3 1.3,-4.88 2.2,-7.76c0.8,-2.9 1.8,-5.88 2.7,-8.97l2.7,-8.4c-2.4,2.6 -4.9,5.2 -7.6,7.7c-2.7,2.6 -5.5,4.9 -8.3,6.9c-2.9,2 -5.8,3.7 -8.7,5c-2.9,1.3 -5.7,1.9 -8.4,1.9c-3.1,0 -5.7,-0.7 -7.9,-2.1c-2.2,-1.4 -4.1,-3.1 -5.5,-5.3c-1.4,-2.2 -2.5,-4.7 -3.2,-7.4c-0.39,-2.59 -0.79,-5.39 -0.79,-8.09l0,-1c0,-0.3 0.04,-0.63 0.1,-0.94c0.24,-5 0.95,-10.1 2.1,-15.34c1.2,-5.28 2.7,-10.5 4.6,-15.7c1.9,-5.2 4.1,-10.3 6.6,-15.26c2.6,-4.76 5.3,-9.46 8.2,-13.86c2.9,-4.4 6.02,-8.5 9.3,-12.2c3.3,-3.72 6.67,-6.92 10.14,-9.6c3.46,-2.7 6.96,-4.8 10.5,-6.3c3.5,-1.5 7,-2.3 10.46,-2.3c4,0 7.86,1.1 11.6,3.27c3.7,2.23 7.2,5.73 10.48,10.63c0.74,1.1 1.2,2.2 1.4,3.32c0.2,1.1 0.3,2.17 0.3,3.15c0,2.34 -0.55,4.2 -1.67,5.54c-1.1,1.4 -2.4,2 -4,2c-1.4,0 -2.7,-0.7 -3.9,-2.2c-1.2,-1.5 -2.6,-3.6 -4,-6.3c-1.4,-2.5 -2.9,-4.3 -4.6,-5.4c-1.7,-1.1 -3.5,-1.6 -5.5,-1.6c-3.1,0 -6.3,1.3 -9.8,3.9c-3.5,2.6 -6.9,5.9 -10.3,10.1c-3.4,4.2 -6.7,9 -9.8,14.4c-3.1,5.4 -5.9,10.9 -8.3,16.6c-2.4,5.7 -4.3,11.2 -5.7,16.7c-1.4,5.5 -2.1,10.4 -2.1,14.8c0,1.5 0.1,3 0.3,4.5c0.2,1.6 0.6,2.9 1.1,4.2c0.5,1.3 1.3,2.3 2.3,3.1c1,0.8 2.2,1.2 3.6,1.2c1.6,0 3.5,-0.5 5.5,-1.6c2.1,-1.1 4.2,-2.5 6.4,-4.3c2.2,-1.8 4.5,-3.8 6.7,-6c2.2,-2.2 4.4,-4.5 6.3,-6.8c1.9,-2.3 3.7,-4.5 5.1,-6.6c1.5,-2.1 2.6,-3.9 3.4,-5.5l5.79,-18.61c0.74,-1.97 1.7,-3.38 2.93,-4.2c1.2,-0.84 2.43,-1.26 3.7,-1.26c0.6,0 1.23,0.1 1.85,0.3c0.6,0.2 1.18,0.52 1.67,0.96c0.5,0.4 0.87,1 1.16,1.7c0.3,0.7 0.5,1.5 0.5,2.5c0,2.5 -0.2,4.86 -0.6,7.04c-0.4,2.2 -1,4.3 -1.7,6.4c-0.6,2.05 -1.4,4.14 -2.2,6.25c-0.8,2.1 -1.6,4.3 -2.4,6.6l-0.38,-0.17Zm83.03,15.28c-1.93,2.6 -4.18,5.14 -6.74,7.6c-2.474,2.399 -5.129,4.606 -7.94,6.6c-2.72,1.92 -5.4,3.47 -8.03,4.64c-2.64,1.17 -5,1.75 -7.1,1.75c-2.1,0 -3.83,-0.7 -5.15,-2.1c-1.32,-1.4 -1.98,-3.8 -1.98,-7.2c0,-2.4 0.36,-5.2 1.06,-8.4c-1.14,2 -2.57,4.1 -4.28,6.1c-1.7,2.1 -3.67,4 -5.86,5.7c-2.2,1.7 -4.66,3.1 -7.38,4.1c-2.72,1 -5.68,1.6 -8.9,1.6c-1.43,0 -2.83,-0.2 -4.17,-0.6c-1.4,-0.4 -2.6,-1 -3.6,-1.9c-1,-0.9 -1.8,-2.1 -2.5,-3.6c-0.6,-1.5 -0.9,-3.4 -0.9,-5.6l0.2,-2.4c0.2,-1.5 0.7,-4 1.7,-7.3c1,-3.3 2.4,-7.6 4.4,-12.9c2,-5.3 4.7,-11.6 8.3,-19.1c0.9,-2 1.9,-3.4 3.2,-4.3c1.2,-0.9 2.5,-1.3 3.9,-1.3c0.6,0 1.2,0.1 1.9,0.3c0.6,0.1 1.2,0.4 1.8,0.8c0.6,0.4 1,0.9 1.4,1.5c0.3,0.5 0.5,1.2 0.5,2c0,0.5 -0.1,1 -0.2,1.4c-0.3,0.9 -0.7,2 -1.4,3.4l-2.6,4.94c-1,1.8 -2,3.8 -3.1,5.92c-1.1,2.13 -2.1,4.4 -3,6.62c-0.9,2.3 -1.7,4.65 -2.4,7c-0.7,2.4 -1.1,4.7 -1.2,6.9c0,1 0.2,1.8 0.6,2.6c0.4,0.8 1.2,1.2 2.2,1.2c2.8,0 5.6,-0.9 8.2,-2.8c2.6,-1.87 5,-4.2 7.2,-6.98c2.2,-2.8 4.2,-5.8 6,-9c1.8,-3.2 3.2,-6.1 4.4,-8.74c0.8,-1.77 1.6,-3.67 2.2,-5.7c0.6,-2 1.3,-3.9 2.1,-5.6c0.7,-1.7 1.6,-3.16 2.6,-4.3c0.9,-1.14 2.1,-1.7 3.6,-1.7c1.5,0 2.8,0.6 3.7,1.8c0.9,1.2 1.4,2.6 1.4,4.3c0,0.9 -0.3,2.2 -0.9,3.8c-0.6,1.6 -1.3,3.5 -2.2,5.6l-2.9,6.77c-1.1,2.4 -2,4.8 -2.9,7.3c-0.9,2.45 -1.7,4.9 -2.3,7.24c-0.6,2.4 -0.9,4.6 -0.9,6.6c0,1.9 1,2.8 2.9,2.8c1.4,0 3.1,-0.4 5.1,-1.4c2,-0.9 4.1,-2.2 6.3,-3.9c2.2,-1.7 4.4,-3.7 6.6,-6c2.2,-2.3 4.2,-4.74 5.9,-7.4l0.7,10.6l0.47,0.74Z" style="fill:#cf4647;fill-rule:nonzero;"/><path d="M152.195,90.02c-0.48,1.2 -0.95,2.6 -1.4,4.18c-0.47,1.58 -0.7,3 -0.7,4.25c0,0.78 0.13,1.4 0.4,1.87c0.26,0.47 0.76,0.7 1.5,0.7c0.93,0 2.08,-0.32 3.47,-0.97c1.38,-0.65 2.87,-1.5 4.47,-2.58c1.6,-1.06 3.28,-2.28 5,-3.66c1.74,-1.4 3.47,-2.9 5.18,-4.3c1.7,-1.5 3.34,-3 4.9,-4.5c1.56,-1.5 2.96,-2.9 4.2,-4.1c0.34,-0.4 0.75,-0.6 1.24,-0.8c0.48,-0.2 0.9,-0.3 1.25,-0.3c0.9,0 1.6,0.3 2.2,1.1c0.6,0.7 0.9,1.7 0.9,2.9c0,1.1 -0.3,2.3 -0.9,3.6c-0.6,1.3 -1.7,2.6 -3.2,3.9c-2.8,3 -5.6,5.9 -8.5,8.7c-2.8,2.7 -5.7,5.2 -8.5,7.3c-2.8,2.1 -5.6,3.7 -8.4,5c-2.8,1.2 -5.5,1.8 -8.1,1.8c-1.8,0 -3.3,-0.3 -4.5,-0.9c-1.2,-0.6 -2.1,-1.4 -2.9,-2.4c-0.7,-1 -1.2,-2.2 -1.5,-3.5c-0.3,-1.4 -0.4,-2.8 -0.4,-4.3c0,-2.6 0.3,-5.2 1,-7.9c0.7,-2.7 1.4,-5.2 2.3,-7.4c1.6,-4.1 3.1,-8.1 4.7,-12.1l4.4,-11l19.89,-50.09c0.75,-2 1.8,-3.42 3.15,-4.3c1.36,-0.8 2.7,-1.2 4.07,-1.2c1.4,0 2.6,0.4 3.74,1.3c1.1,0.86 1.7,2.3 1.7,4.27c0,0.93 -0.2,1.92 -0.55,2.96c-0.4,1 -0.8,2.14 -1.4,3.33c-1.1,2.42 -2.4,5.4 -3.9,8.94l-5,11.6c-1.7,4.15 -3.5,8.5 -5.3,13l-5.4,13.2c-1.8,4.28 -3.4,8.3 -4.9,12.14l-3.9,9.93l-0.31,0.33Z" style="fill:#cf4647;fill-rule:nonzero;"/><path d="M245.495,75.92c0.63,-0.43 1.2,-0.77 1.73,-1.03c0.52,-0.26 1.03,-0.4 1.5,-0.4c0.97,0 1.7,0.44 2.18,1.3c0.5,0.86 0.8,1.9 0.8,3.16c0,1.35 -0.3,2.73 -0.9,4.13c-0.6,1.4 -1.4,2.58 -2.6,3.5c-4.7,4.17 -8.9,7.97 -12.5,11.4c-3.7,3.43 -7.1,6.38 -10.4,8.85c-3.3,2.5 -6.5,4.4 -9.6,5.8c-3.1,1.4 -6.4,2.1 -10,2.1c-3.3,0 -5.9,-0.7 -7.7,-2.2c-1.8,-1.4 -2.7,-3.4 -2.7,-6l0,-0.6c0,-0.1 0.1,-0.4 0.1,-0.6c0.2,-1.5 0.9,-3.3 2.1,-5.4c1.2,-2 2.6,-4.1 4.3,-6.3c1.7,-2.2 3.5,-4.4 5.4,-6.6c1.9,-2.2 3.6,-4.3 5.3,-6.3c1.6,-2 2.9,-3.8 4,-5.5c1.1,-1.6 1.6,-3 1.6,-4c0,-0.6 -0.2,-1.1 -0.62,-1.5c-0.47,-0.3 -1.2,-0.5 -2.2,-0.5c-1.8,0 -3.6,0.5 -5.46,1.4c-1.9,0.9 -3.76,2.2 -5.6,3.7c-1.8,1.6 -3.6,3.3 -5.32,5.3c-1.72,2 -3.3,4.1 -4.9,6.2c-1.5,2.2 -2.9,4.3 -4.2,6.5c-1.2,2.2 -2.3,4.2 -3.2,6l-1.1,2.4l-1.5,3.6l-1.8,4l-1.7,3.9l-1.4,3.3c-0.4,1 -0.7,1.6 -0.9,2c-0.2,0.5 -0.5,1.4 -1,2.7l-1.8,4.58l-2.1,5.5l-2,5.4l-1.7,4.58c-0.5,1.3 -0.8,2.18 -0.9,2.65c-0.5,1.3 -1,2.6 -1.6,3.8c-0.6,1.2 -1.25,2.23 -2.02,3.14c-0.76,0.9 -1.64,1.65 -2.63,2.2c-1,0.5 -2.1,0.8 -3.3,0.8c-1.6,0 -2.9,-0.4 -3.9,-1.12c-1,-0.7 -1.6,-2.2 -1.6,-4.3c0,-1 0.1,-2.1 0.4,-3.2c0.2,-1.1 0.6,-2.12 1,-3.2c0.3,-1.1 0.8,-2.1 1.2,-3.1c0.4,-1 0.8,-2 1.1,-2.96c2.3,-5.2 4.75,-10.4 7.2,-15.66c2.45,-5.26 4.8,-10.4 7.1,-15.5c2.26,-5.1 4.35,-10.1 6.3,-15.1c1.9,-4.9 3.5,-9.66 4.8,-14.2l1.4,-3.96c0.6,-1.7 1.3,-3.4 2.1,-5c0.8,-1.6 1.7,-3.1 2.7,-4.3c1,-1.2 2.1,-1.83 3.2,-1.83c1.8,0 3.07,0.4 3.86,1.2c0.8,0.88 1.2,2 1.2,3.6c0,0.3 -0.04,0.8 -0.13,1.5c-0.1,0.7 -0.2,1.4 -0.36,2.15l-0.43,2.1c-0.1,0.7 -0.3,1.2 -0.4,1.5c1.6,-1.76 3.4,-3.5 5.28,-5.25c1.9,-1.73 3.9,-3.3 5.9,-4.7c2,-1.4 4.1,-2.6 6.2,-3.45c2.1,-0.9 4.2,-1.35 6.3,-1.35c1.5,0 2.9,0.2 4.36,0.6c1.4,0.42 2.7,1.03 3.8,1.84c1.17,0.8 2.08,1.8 2.78,3c0.7,1.2 1.05,2.63 1.05,4.24c0,2.13 -0.56,4.4 -1.6,6.8c-1.1,2.44 -2.4,4.9 -4.06,7.3c-1.6,2.46 -3.37,4.84 -5.26,7.15c-1.9,2.3 -3.6,4.4 -5.3,6.3l-4.2,4.9c-1.1,1.3 -1.7,2.2 -1.72,2.7c0,0.6 0.2,1.1 0.6,1.5c0.4,0.4 1.1,0.6 2,0.6c0.78,0 1.88,-0.45 3.3,-1.3c1.48,-0.9 3.5,-2.3 6.1,-4.36c2.6,-2.1 5.96,-4.8 9.97,-8.3c4,-3.46 9,-7.8 14.87,-13.07l-0.77,-0.73Z" style="fill:#cf4647;fill-rule:nonzero;"/></svg>