<svg width="123" height="123" viewBox="0 0 123 123" fill="none" xmlns="http://www.w3.org/2000/svg">
<g clip-path="url(#clip0)">
<path d="M22.044 62.1049L19.7658 59.8267C12.443 52.5039 10.3275 42.2519 12.9312 32.9763C5.60836 31.349 0.238281 24.8398 0.238281 17.0288C0.238281 8.07869 7.56111 0.755859 16.5112 0.755859C24.6477 0.755859 31.3196 6.61413 32.6215 14.4251C41.4089 12.3097 51.0099 14.7506 57.8446 21.5852L58.8209 22.5616L46.7789 34.6036L45.8026 33.6272C41.8971 29.7217 35.5506 29.7217 31.6451 33.6272C27.7396 37.5327 27.7396 43.8792 31.6451 47.7847L58.6582 74.7978L46.6162 86.8398L33.9233 74.1469L22.044 62.1049Z" fill="#7AC143"/>
<path d="M35.5068 48.7497L48.1997 36.0568L60.2417 24.0148L62.5199 21.7366C69.68 14.5765 80.0947 12.2983 89.2075 14.902C90.3466 6.92823 97.1813 0.907227 105.318 0.907227C114.268 0.907227 121.591 8.23006 121.591 17.1802C121.591 25.4794 115.407 32.314 107.433 33.2904C110.037 42.4033 107.759 52.6553 100.599 59.8154L99.6222 60.7917L87.9057 48.7497L88.8821 47.7734C92.7876 43.8679 92.7876 37.5214 88.8821 33.6159C84.9766 29.7104 78.6301 29.7104 74.7246 33.6159L72.4464 35.8941L60.4044 47.9361L47.7115 60.629L35.5068 48.7497Z" fill="#F9A541"/>
<path d="M89.6829 109.465C80.4073 112.231 69.9926 110.115 62.6697 102.793L61.6934 101.816L73.7354 89.7743L74.7117 90.7506C78.6172 94.6562 84.9637 94.6562 88.8692 90.7506C92.7747 86.8451 92.7747 80.4987 88.8692 76.5932L86.591 74.315L74.549 62.273L61.8561 49.5801L73.8981 37.5381L101.074 64.7139C107.909 71.5486 110.35 81.3123 108.234 90.2625C116.208 91.4016 122.229 98.2362 122.229 106.373C122.229 115.323 114.906 122.646 105.956 122.646C97.8193 122.483 91.1474 116.787 89.6829 109.465Z" fill="#F44321"/>
<path d="M85.0204 75.6152L72.3275 88.3081L60.2855 100.35L58.0073 102.628C51.0099 109.626 41.2462 111.904 32.4588 109.788C30.8315 117.111 24.3223 122.481 16.5112 122.481C7.56112 122.481 0.238281 115.159 0.238281 106.208C0.238281 98.5601 5.60836 92.0509 12.7685 90.4236C10.4903 81.3108 12.7685 71.547 19.7658 64.5496L20.7422 63.5732L32.7842 75.6152L31.8078 76.5916C27.9023 80.4971 27.9023 86.8436 31.8078 90.7491C35.7133 94.6546 42.0598 94.6546 45.9653 90.7491L48.2435 88.4709L60.2855 76.4289L72.9784 63.736L85.0204 75.6152Z" fill="#5091CD"/>
</g>
<defs>
<clipPath id="clip0">
<rect x="0.238281" y="0.755859" width="121.991" height="121.89" fill="white"/>
</clipPath>
</defs>
</svg>
