<?xml version="1.0" encoding="UTF-8" standalone="no"?><!DOCTYPE svg PUBLIC "-//W3C//DTD SVG 1.1//EN" "http://www.w3.org/Graphics/SVG/1.1/DTD/svg11.dtd"><svg width="100%" height="100%" viewBox="0 0 52 50" version="1.1" xmlns="http://www.w3.org/2000/svg" xmlns:xlink="http://www.w3.org/1999/xlink" xml:space="preserve" xmlns:serif="http://www.serif.com/" style="fill-rule:evenodd;clip-rule:evenodd;stroke-linejoin:round;stroke-miterlimit:2;"><g><path d="M3.294,11.398c-4.6,6.5 -4,15.1 -0.5,22c0,0.2 0.1,0.4 0.2,0.6c0,0.1 0.1,0.2 0.2,0.3c0,0.1 0.1,0.1 0.1,0.2c0.1,0.1 0.1,0.2 0.2,0.3c0.1,0.2 0.2,0.4 0.3,0.6c0.1,0.1 0.1,0.2 0.2,0.3c0.1,0.2 0.3,0.4 0.4,0.6c0.1,0.1 0.1,0.2 0.2,0.3c0.2,0.3 0.4,0.5 0.6,0.8l0.1,0.1c0.2,0.2 0.3,0.5 0.5,0.7c0.1,0.1 0.1,0.2 0.2,0.2c0.2,0.2 0.3,0.4 0.5,0.6c0.1,0.1 0.1,0.1 0.2,0.2c0.2,0.3 0.4,0.5 0.7,0.7c0.2,0.2 0.4,0.5 0.7,0.7l0.9,0.9c0.2,0.2 0.5,0.4 0.7,0.7l0.1,0.1c0.2,0.2 0.4,0.4 0.7,0.6c0.1,0.1 0.2,0.1 0.3,0.2c0.2,0.1 0.4,0.3 0.6,0.4c0.1,0.1 0.2,0.1 0.3,0.2c0.2,0.2 0.4,0.3 0.6,0.4c0.1,0.1 0.1,0.1 0.2,0.2l0.1,0c0.2,0.1 0.4,0.3 0.6,0.4c0.1,0.1 0.2,0.1 0.3,0.2c0.3,0.2 0.6,0.4 0.9,0.6c0.1,0 0.2,0.1 0.3,0.1c0.2,0.1 0.5,0.3 0.7,0.4c0.1,0.1 0.3,0.1 0.4,0.2c0.2,0.1 0.3,0.2 0.5,0.3c0,0 0.1,0 0.1,0.1c0.1,0 0.1,0.1 0.2,0.1c0.3,0.1 0.5,0.3 0.8,0.4c0.1,0 0.1,0 0.2,0.1c0.3,0.1 0.6,0.3 0.9,0.4c0.1,0 0.1,0.1 0.2,0.1c0.3,0.1 0.6,0.2 0.9,0.3l0.1,0c0.3,0.1 0.7,0.2 1,0.3c0.1,0 0.2,0.1 0.2,0.1c0.3,0.1 0.7,0.2 1,0.3c22,4 28.4,-13.2 28.4,-13.2c-5.4,7 -14.9,8.8 -24,6.8c-0.3,-0.1 -0.7,-0.2 -1,-0.3c-0.1,0 -0.2,0 -0.2,-0.1c-0.3,-0.1 -0.7,-0.2 -1,-0.3c0,0 -0.1,0 -0.1,-0.1c-0.3,-0.1 -0.6,-0.2 -0.9,-0.3c-0.1,0 -0.2,-0.1 -0.2,-0.1c-0.3,-0.1 -0.6,-0.3 -0.9,-0.4c-0.1,0 -0.1,-0.1 -0.2,-0.1c-0.3,-0.1 -0.5,-0.2 -0.8,-0.4c-0.1,0 -0.1,-0.1 -0.2,-0.1c-0.2,-0.1 -0.4,-0.2 -0.6,-0.3c-0.1,-0.1 -0.3,-0.1 -0.4,-0.2c-0.2,-0.1 -0.5,-0.3 -0.7,-0.4c-0.1,-0.1 -0.2,-0.1 -0.2,-0.1c-0.3,-0.2 -0.6,-0.4 -0.9,-0.6c-0.1,-0.1 -0.2,-0.1 -0.3,-0.2c-0.2,-0.1 -0.5,-0.3 -0.7,-0.4c-0.1,-0.1 -0.1,-0.1 -0.2,-0.2c-0.2,-0.1 -0.4,-0.3 -0.6,-0.5c-0.1,-0.1 -0.2,-0.1 -0.3,-0.2c-0.2,-0.1 -0.4,-0.3 -0.6,-0.4c-0.1,-0.1 -0.2,-0.1 -0.3,-0.2c-0.2,-0.2 -0.5,-0.4 -0.7,-0.6c0,0 -0.1,0 -0.1,-0.1c-0.2,-0.2 -0.5,-0.5 -0.7,-0.7c-0.1,-0.1 -0.1,-0.1 -0.2,-0.2c-0.2,-0.2 -0.4,-0.3 -0.5,-0.5c-0.1,-0.1 -0.1,-0.1 -0.2,-0.2c-0.2,-0.2 -0.4,-0.5 -0.7,-0.7c-0.2,-0.2 -0.4,-0.5 -0.7,-0.8c-0.1,-0.1 -0.1,-0.1 -0.2,-0.2c-0.2,-0.2 -0.3,-0.4 -0.5,-0.6c-0.1,-0.1 -0.1,-0.1 -0.2,-0.2c-0.3,-0.1 -0.5,-0.4 -0.7,-0.6c-5,-6.8 -6.8,-16.3 -2.8,-24" style="fill:#0769ad;fill-rule:nonzero;"/><path d="M17.394,5.898c-3.3,4.8 -3.1,11.1 -0.5,16.1c0.4,0.8 0.9,1.7 1.5,2.4c0.5,0.7 1,1.5 1.7,2.1c0.2,0.3 0.5,0.5 0.7,0.8c0.1,0.1 0.1,0.1 0.2,0.2c0.2,0.2 0.5,0.5 0.8,0.7c0.3,0.3 0.6,0.5 0.9,0.7c0.1,0.1 0.1,0.1 0.2,0.2c0.3,0.2 0.6,0.5 0.9,0.7c0.1,0.1 0.3,0.2 0.4,0.3c0.1,0 0.1,0.1 0.2,0.1c0.2,0.1 0.5,0.3 0.7,0.4c0,0 0.1,0 0.1,0.1c0.2,0.1 0.4,0.2 0.6,0.3c0.1,0 0.1,0.1 0.2,0.1c0.1,0.1 0.3,0.1 0.4,0.2l0.1,0c0.3,0.1 0.6,0.3 0.9,0.4c0.1,0 0.1,0.1 0.2,0.1c0.2,0.1 0.5,0.2 0.7,0.3c0.1,0 0.2,0.1 0.3,0.1c0.2,0.1 0.4,0.2 0.7,0.2c0.1,0 0.2,0.1 0.3,0.1c0.3,0.1 0.6,0.2 1,0.3c17,2.8 20.9,-10.3 20.9,-10.3c-3.5,5.1 -10.4,7.5 -17.7,5.6c-0.3,-0.1 -0.6,-0.2 -1,-0.3c-0.1,0 -0.2,-0.1 -0.3,-0.1c-0.2,-0.1 -0.5,-0.1 -0.7,-0.2c-0.1,0 -0.2,-0.1 -0.3,-0.1c-0.2,-0.1 -0.5,-0.2 -0.7,-0.3c-0.1,0 -0.1,-0.1 -0.2,-0.1c-0.3,-0.1 -0.6,-0.3 -0.9,-0.4c-0.1,-0.1 -0.3,-0.2 -0.4,-0.2c-0.1,0 -0.2,-0.1 -0.3,-0.1c-0.2,-0.1 -0.4,-0.2 -0.6,-0.3c0,0 -0.1,0 -0.1,-0.1c-0.2,-0.1 -0.5,-0.3 -0.7,-0.4c-0.1,0 -0.1,-0.1 -0.2,-0.1c-0.1,-0.1 -0.3,-0.2 -0.4,-0.3c-0.3,-0.2 -0.6,-0.4 -0.9,-0.7c-0.1,-0.1 -0.1,-0.1 -0.2,-0.2c-3.2,-2.5 -5.7,-6 -6.9,-9.9c-1.3,-4.1 -1,-8.6 1.2,-12.3" style="fill:#0769ad;fill-rule:nonzero;"/><path d="M29.294,1.798c-1.9,2.9 -2.1,6.4 -0.8,9.6c1.4,3.4 4.3,6 7.7,7.2c0.1,0.1 0.3,0.1 0.4,0.1c0.1,0 0.1,0 0.2,0.1c0.2,0.1 0.4,0.1 0.6,0.2c9.4,1.8 11.9,-4.8 12.6,-5.8c-2.2,3.2 -6,4 -10.6,2.9c-0.4,-0.1 -0.8,-0.2 -1.1,-0.3c-0.4,-0.2 -0.9,-0.3 -1.3,-0.5c-0.8,-0.4 -1.6,-0.9 -2.3,-1.4c-4.1,-3.1 -6.7,-9.1 -4,-13.9" style="fill:#0769ad;fill-rule:nonzero;"/></g></svg>