<svg width="44" height="43" viewBox="0 0 44 43" fill="none" xmlns="http://www.w3.org/2000/svg">
<g clip-path="url(#clip0)">
<path fill-rule="evenodd" clip-rule="evenodd" d="M43.6478 28.4299C42.9617 29.1658 42.065 28.535 42.065 28.535L22.0175 6.99359L43.8061 26.9589C43.8061 26.9589 44.334 27.6948 43.6478 28.4299ZM41.4062 21.4499L32.3201 11.6568L42.2675 20.7108C42.2675 20.7108 42.5286 21.0556 42.1888 21.4005C41.8497 21.7445 41.4062 21.4499 41.4062 21.4499ZM42.8918 34.4423C41.91 35.496 40.6269 34.5936 40.6269 34.5936L11.9311 3.76002L43.1183 32.3373C43.1183 32.3373 43.8736 33.3902 42.8918 34.4423ZM39.9472 39.6319C38.9654 40.6848 37.6815 39.7824 37.6815 39.7824L0 0L40.1737 37.5261C40.1737 37.5261 40.9282 38.579 39.9472 39.6319ZM34.5103 42.4896C33.5285 43.5425 32.2446 42.6401 32.2446 42.6401L3.54961 11.8065L34.7368 40.3838C34.7368 40.3838 35.4913 41.4367 34.5103 42.4896ZM27.9413 42.5684C27.2552 43.3035 26.3585 42.6735 26.3585 42.6735L6.31104 21.1321L28.0996 41.0974C28.0996 41.0974 28.6267 41.8333 27.9413 42.5684ZM21.1964 40.8027C20.8574 41.1475 20.4139 40.8521 20.4139 40.8521L11.3277 31.059L21.2752 40.113C21.2752 40.113 21.5355 40.4578 21.1964 40.8027Z" fill="#FF6A3E"/>
</g>
<defs>
<clipPath id="clip0">
<rect width="44" height="43" fill="white"/>
</clipPath>
</defs>
</svg>
