<?xml version="1.0" encoding="UTF-8" standalone="no"?><!DOCTYPE svg PUBLIC "-//W3C//DTD SVG 1.1//EN" "http://www.w3.org/Graphics/SVG/1.1/DTD/svg11.dtd"><svg width="100%" height="100%" viewBox="0 0 240 234" version="1.1" xmlns="http://www.w3.org/2000/svg" xmlns:xlink="http://www.w3.org/1999/xlink" xml:space="preserve" xmlns:serif="http://www.serif.com/" style="fill-rule:evenodd;clip-rule:evenodd;stroke-linejoin:round;stroke-miterlimit:2;"><g><rect x="10" y="10" width="220" height="214" style="fill:#2a0034;"/><path d="M0,0l0,234l240,0l0,-234l-240,0Zm10,10l220,0l0,214l-220,0l0,-214Zm52.3,44.8c0,-0.7 0.2,-1.2 1,-1.2c6.4,-0.3 15.8,-0.5 25.7,-0.5c27.7,0 39.8,15.2 39.8,34.7c0,25.4 -18.4,36.3 -41,36.3c-3.8,0 -5.1,-0.2 -7.8,-0.2l0,38.4c0,0.8 -0.3,1.2 -1.2,1.2l-15.4,0c-0.8,0 -1.2,-0.3 -1.2,-1.2c0,0 0,-107.5 0.1,-107.5Zm17.7,53.1c2.3,0.2 4.1,0.2 8.1,0.2c11.7,0 22.7,-4.1 22.7,-20c0,-12.7 -7.8,-19.1 -21.2,-19.1c-4,0 -7.8,0.2 -9.6,0.3l0,38.6Zm64,-9.1c0,-1.2 0,-4.1 -0.5,-9.7c0,-0.8 0.1,-1 0.8,-1.3c6.1,-2.5 20.4,-6.9 36.6,-6.9c0.8,0 1.2,0.2 1.2,1l0,14.5c0,0.8 -0.3,1 -1.1,1c-6.3,-0.3 -15.4,0.5 -18.9,2l0,63c0,0.8 -0.3,1.2 -1.2,1.2l-15.7,0c-0.8,0 -1.2,-0.3 -1.2,-1.2l0,-63.6Z" style="fill:#ea77ff;fill-rule:nonzero;"/></g></svg>