<?xml version="1.0" standalone="no"?>
<!DOCTYPE svg PUBLIC "-//W3C//DTD SVG 20010904//EN"
 "http://www.w3.org/TR/2001/REC-SVG-20010904/DTD/svg10.dtd">
<svg version="1.0" xmlns="http://www.w3.org/2000/svg"
 width="700.000000pt" height="700.000000pt" viewBox="0 0 700.000000 700.000000"
 preserveAspectRatio="xMidYMid meet">
<metadata>
Created by potrace 1.11, written by Peter Selinger 2001-2013
</metadata>
<g transform="translate(0.000000,700.000000) scale(0.100000,-0.100000)"
fill="#000000" stroke="none">
<path d="M1837 5404 c-1 -1 -29 -4 -62 -7 -488 -47 -905 -461 -1243 -1232 -79
-181 -192 -470 -192 -493 0 -7 -8 -15 -18 -19 -93 -31 -133 -74 -137 -147 -7
-149 200 -214 273 -85 l17 29 365 -5 c201 -3 532 -7 735 -10 1068 -13 1657
-21 1796 -24 l35 -1 24 -97 c13 -54 25 -106 27 -117 2 -10 19 -73 37 -140 254
-900 713 -1394 1349 -1453 412 -38 770 85 1052 361 166 163 325 406 424 651
18 44 39 94 46 110 23 51 83 237 119 367 l34 123 51 7 c229 34 326 311 166
471 -58 58 -109 80 -190 83 -56 3 -80 -1 -120 -20 -48 -22 -109 -73 -130 -108
-9 -16 -54 -18 -515 -23 -278 -3 -633 -8 -790 -10 -157 -2 -523 -7 -815 -10
-291 -4 -573 -8 -625 -9 l-95 -1 -41 120 c-143 421 -375 883 -574 1145 -232
306 -532 500 -829 536 -50 6 -170 12 -174 8z m215 -559 c49 -3 95 -8 102 -10
6 -2 27 -6 46 -9 52 -8 203 -53 268 -80 279 -118 494 -317 671 -619 28 -48 51
-90 51 -92 0 -2 13 -32 30 -67 37 -79 83 -202 129 -349 l9 -26 -272 -2 c-149
-2 -374 -4 -501 -6 -928 -12 -1344 -18 -1565 -20 -140 -2 -316 -4 -390 -5 -74
-1 -139 -1 -145 -1 -5 1 -23 17 -38 36 l-28 35 47 132 c179 513 485 860 882
1003 131 47 244 71 382 81 47 4 86 7 87 8 4 3 153 -2 235 -9z m2753 -1450
c712 -9 1384 -17 1427 -17 40 0 50 -4 64 -27 19 -29 95 -101 107 -101 9 0 2
-29 -18 -75 -8 -16 -26 -59 -41 -95 -46 -112 -170 -330 -219 -386 -5 -7 -26
-31 -45 -55 -152 -190 -370 -342 -600 -419 -301 -101 -694 -100 -995 2 -359
122 -625 372 -820 773 -61 125 -155 368 -155 401 0 14 46 15 498 9 273 -3 632
-8 797 -10z"/>
</g>
</svg>
